<?xml version="1.0" encoding="utf-8"?>
<!-- Generator: Adobe Illustrator 16.0.0, SVG Export Plug-In . SVG Version: 6.00 Build 0)  -->
<!DOCTYPE svg PUBLIC "-//W3C//DTD SVG 1.1//EN" "http://www.w3.org/Graphics/SVG/1.1/DTD/svg11.dtd">
<svg version="1.1" id="Layer_1" xmlns="http://www.w3.org/2000/svg" xmlns:xlink="http://www.w3.org/1999/xlink" x="0px" y="0px"
	 width="1190.55px" height="841.89px" viewBox="0 0 1190.55 841.89" enable-background="new 0 0 1190.55 841.89"
	 xml:space="preserve">
<g>
	<g>
		<g enable-background="new    ">
			<g>
				<polygon fill="#8C0805" points="593.603,814.562 592.076,815.352 604.538,808.566 607.438,807.029 				"/>
			</g>
			<g enable-background="new    ">
				<defs>
					<path id="SVGID_1_" enable-background="new    " d="M587.751,820.021c-0.419,0.307-0.629,0.53-0.899,0.96
						c0.244-0.41,0.57-0.959,0.814-1.37C587.743,819.885,587.768,820.008,587.751,820.021z"/>
				</defs>
				<clipPath id="SVGID_2_">
					<use xlink:href="#SVGID_1_"  overflow="visible"/>
				</clipPath>
				<g clip-path="url(#SVGID_2_)" enable-background="new    ">
					<path fill="#8F0907" d="M587.751,820.021l-0.97,0.688c0.054,0.159,0.08,0.258,0.07,0.272l0.814-1.37
						C587.743,819.885,587.768,820.008,587.751,820.021"/>
				</g>
			</g>
			<g enable-background="new    ">
				<defs>
					<path id="SVGID_3_" enable-background="new    " d="M587.472,820.328c-0.269,0.228-0.418,0.358-0.601,0.631
						c-0.489,0.725-0.895,1.498-1.341,2.248c0.537-1.674,1.072-2.889,1.604-3.653c0.351-0.513,1.104-1.26,2.267-2.241
						c1.154-0.972,2.043-1.629,2.675-1.961l1.527-0.79c-0.716,0.378-1.646,0.988-2.844,2.075c-1.307,1.005-2.02,1.819-2.443,2.435
						C587.951,819.597,587.582,820.235,587.472,820.328z"/>
				</defs>
				<clipPath id="SVGID_4_">
					<use xlink:href="#SVGID_3_"  overflow="visible"/>
				</clipPath>
				<g clip-path="url(#SVGID_4_)" enable-background="new    ">
					<path fill="#8F0907" d="M587.666,819.61l-2.136,3.597c0.537-1.674,1.072-2.889,1.604-3.653c0.351-0.513,1.104-1.26,2.267-2.241
						c1.154-0.972,2.043-1.629,2.675-1.961l1.527-0.79c-0.716,0.378-1.646,0.988-2.844,2.075c-1.307,1.005-2.02,1.819-2.443,2.435
						C587.71,819.943,587.093,821.128,587.666,819.61"/>
				</g>
			</g>
			<g>
				<polygon fill="#8B0704" points="579.858,838.202 578.853,839.098 578.887,833.186 579.886,833.29 				"/>
			</g>
			<g enable-background="new    ">
				<defs>
					<path id="SVGID_5_" enable-background="new    " d="M577.804,827.732l0.555,0.365c0.228,0.328,0.823,1.341,0.989,1.692
						c0.299,1.769,0.542,2.976,0.538,3.5l-0.999-0.104c0.003-0.639-0.185-1.872-0.558-3.707c-0.173-0.927-0.62-1.683-1.332-2.276
						c-0.081-0.065-0.163-0.128-0.247-0.187l0,0C576.904,827.123,577.374,827.45,577.804,827.732z"/>
				</defs>
				<clipPath id="SVGID_6_">
					<use xlink:href="#SVGID_5_"  overflow="visible"/>
				</clipPath>
				<g clip-path="url(#SVGID_6_)" enable-background="new    ">
					<path fill="#8F0907" d="M579.886,833.29l-0.999-0.104c0.003-0.639-0.185-1.872-0.558-3.707
						c-0.173-0.927-0.62-1.683-1.332-2.276c-0.081-0.065-0.163-0.128-0.247-0.187l1.453,1.015c0.06,0.024,0.112,0.047,0.155,0.067
						c0.228,0.328,0.823,1.341,0.989,1.692C579.646,831.559,579.89,832.766,579.886,833.29"/>
				</g>
			</g>
			<g>
				<polygon fill="#8B0704" points="562.39,854.275 561.396,853.171 561.529,829.821 562.529,829.926 				"/>
			</g>
			<g enable-background="new    ">
				<defs>
					<path id="SVGID_7_" enable-background="new    " d="M567.822,813.568c0.314-0.168,0.627-0.336,0.941-0.505
						c0.259-0.139,0.514-0.286,0.777-0.417c-0.536,0.288-1.05,0.62-1.554,0.991c-2.36,1.606-3.52,3.233-4.298,6.045
						c-0.75,2.425-1.215,5.724-1.159,10.243l-1-0.104c0.025-4.339,0.401-7.641,1.112-9.935c0.719-2.286,2.032-4.131,3.937-5.534
						C566.975,814.061,567.389,813.799,567.822,813.568z"/>
				</defs>
				<clipPath id="SVGID_8_">
					<use xlink:href="#SVGID_7_"  overflow="visible"/>
				</clipPath>
				<g clip-path="url(#SVGID_8_)" enable-background="new    ">
					<path fill="#8F0907" d="M562.529,829.926l-1-0.104c0.025-4.339,0.401-7.641,1.112-9.935c0.719-2.286,2.032-4.131,3.937-5.534
						c0.461-0.34,0.948-0.639,1.458-0.896l1.503-0.811c-0.536,0.288-1.05,0.62-1.554,0.991c-2.36,1.606-3.52,3.233-4.298,6.045
						C562.938,822.107,562.473,825.406,562.529,829.926"/>
				</g>
			</g>
			<g>
				<polygon fill="#950C0A" points="602.082,815.018 593.603,814.562 607.438,807.029 615.917,807.485 				"/>
			</g>
			<g>
				<polygon fill="#970D0B" points="598.337,838.658 589.858,838.202 607.26,838.202 615.739,838.658 				"/>
			</g>
			<g enable-background="new    ">
				<defs>
					<path id="SVGID_9_" enable-background="new    " d="M595.928,820.796c-2.827-0.151-5.653-0.304-8.479-0.456
						c0.07,0.004,0.471-0.699,0.867-1.269c0.424-0.615,1.137-1.43,2.443-2.435c1.198-1.087,2.128-1.697,2.844-2.075l8.479,0.456
						c-0.716,0.378-1.646,0.988-2.844,2.075c-1.307,1.005-2.02,1.819-2.443,2.435C596.399,820.097,595.999,820.8,595.928,820.796z"
						/>
				</defs>
				<clipPath id="SVGID_10_">
					<use xlink:href="#SVGID_9_"  overflow="visible"/>
				</clipPath>
				<g clip-path="url(#SVGID_10_)" enable-background="new    ">
					<polyline fill="#960D0B" points="595.928,820.796 587.449,820.34 587.46,820.336 595.94,820.792 595.928,820.796 					"/>
					<path fill="#920B09" d="M595.94,820.792l-8.479-0.456c0.005-0.003,0.012-0.008,0.019-0.015l8.479,0.456
						C595.952,820.784,595.945,820.789,595.94,820.792"/>
					<path fill="#8F0907" d="M595.959,820.777l-8.479-0.456c0.12-0.116,0.48-0.737,0.836-1.25c0.281-0.407,0.688-0.902,1.312-1.482
						l8.48,0.456c-0.624,0.579-1.031,1.074-1.313,1.482C596.439,820.04,596.079,820.661,595.959,820.777"/>
					<path fill="#920B09" d="M598.107,818.045l-8.48-0.456c0.317-0.296,0.691-0.613,1.132-0.952
						c1.198-1.087,2.128-1.697,2.844-2.075l8.479,0.456c-0.716,0.378-1.646,0.988-2.844,2.075
						C598.798,817.432,598.425,817.749,598.107,818.045"/>
				</g>
			</g>
			<g enable-background="new    ">
				<defs>
					<path id="SVGID_11_" enable-background="new    " d="M596.227,820.477c-2.826-0.151-5.652-0.304-8.479-0.455
						c0.023,0.001,0-0.121-0.082-0.411l8.479,0.456C596.227,820.356,596.25,820.479,596.227,820.477z"/>
				</defs>
				<clipPath id="SVGID_12_">
					<use xlink:href="#SVGID_11_"  overflow="visible"/>
				</clipPath>
				<g clip-path="url(#SVGID_12_)" enable-background="new    ">
					<polyline fill="#960D0B" points="596.227,820.477 587.748,820.021 587.751,820.02 596.23,820.476 596.227,820.477 					"/>
					<polyline fill="#920B09" points="596.23,820.476 587.751,820.02 587.754,820.016 596.233,820.472 596.23,820.476 					"/>
					<path fill="#8F0907" d="M596.233,820.472l-8.479-0.456c0.01-0.026-0.017-0.15-0.088-0.405l8.479,0.456
						C596.217,820.32,596.243,820.445,596.233,820.472"/>
				</g>
			</g>
			<g enable-background="new    ">
				<defs>
					<path id="SVGID_13_" enable-background="new    " d="M597.01,821.942c-0.267-0.532-0.5-0.778-1.085-1.147
						c0.057,0.035,0.466-0.686,0.871-1.268c0.424-0.615,1.137-1.43,2.443-2.435c1.198-1.087,2.128-1.697,2.844-2.075l2.363,0.998
						c-0.632,0.333-1.521,0.99-2.675,1.962c-1.163,0.981-1.917,1.729-2.268,2.241c-0.532,0.765-1.067,1.979-1.604,3.653
						L597.01,821.942z"/>
				</defs>
				<clipPath id="SVGID_14_">
					<use xlink:href="#SVGID_13_"  overflow="visible"/>
				</clipPath>
				<g clip-path="url(#SVGID_14_)" enable-background="new    ">
					<path fill="#8F0907" d="M597.898,823.872l-1.754-3.806c-0.067,0.181-0.119,0.323-0.156,0.433l2.102,2.794
						C598.026,823.479,597.963,823.673,597.898,823.872"/>
					<path fill="#920B09" d="M598.091,823.293l-2.102-2.794c-0.27,0.807,0.273-0.204,0.806-0.972
						c0.006-0.008,0.011-0.015,0.016-0.022l2.705,0.695c-0.005,0.006-0.009,0.013-0.013,0.019
						C599.034,820.892,598.563,821.915,598.091,823.293"/>
					<path fill="#960D0B" d="M599.516,820.2l-2.705-0.695c0.225-0.323,0.529-0.702,0.958-1.133l2.643,0.824
						C600.002,819.595,599.704,819.93,599.516,820.2"/>
					<path fill="#9A0E0D" d="M600.411,819.196l-2.643-0.824c0.382-0.385,0.861-0.812,1.47-1.279
						c0.828-0.752,1.528-1.275,2.119-1.652l2.43,0.977c-0.548,0.367-1.219,0.889-2.017,1.561
						C601.229,818.435,600.775,818.841,600.411,819.196"/>
					<path fill="#9E100F" d="M603.787,816.417l-2.43-0.977c0.263-0.168,0.504-0.307,0.725-0.423l2.363,0.998
						C604.25,816.119,604.031,816.252,603.787,816.417"/>
				</g>
			</g>
			<g enable-background="new    ">
				<defs>
					<path id="SVGID_15_" enable-background="new    " d="M596.649,821.16c-0.111-0.229-0.191-0.374-0.446-0.704
						c0.055,0.07,0.043-0.031-0.059-0.39L596.649,821.16z"/>
				</defs>
				<clipPath id="SVGID_16_">
					<use xlink:href="#SVGID_15_"  overflow="visible"/>
				</clipPath>
				<g clip-path="url(#SVGID_16_)" enable-background="new    ">
					<path fill="#9A0E0D" d="M596.566,820.927l-0.363-0.471c0.033,0.043,0.042,0.021,0.021-0.085l0.436,0.801
						C596.649,821.142,596.617,821.055,596.566,820.927"/>
					<path fill="#960D0B" d="M596.659,821.172l-0.436-0.801c-0.011-0.048-0.026-0.113-0.049-0.197l0.482,1.004
						C596.663,821.188,596.663,821.186,596.659,821.172"/>
					<path fill="#920B09" d="M596.657,821.178l-0.482-1.004c-0.009-0.033-0.019-0.068-0.03-0.107l0.505,1.094
						C596.652,821.168,596.655,821.174,596.657,821.178"/>
				</g>
			</g>
			<g>
				<polygon fill="#8B0804" points="588.337,838.658 579.858,838.202 579.886,833.29 588.365,833.746 				"/>
			</g>
			<g>
				<polygon fill="#A41212" points="604.445,816.016 602.082,815.018 615.917,807.485 616.907,809.231 				"/>
			</g>
			<g enable-background="new    ">
				<defs>
					<path id="SVGID_17_" enable-background="new    " d="M588.365,833.746l-8.479-0.456c0.004-0.524-0.239-1.731-0.538-3.5
						c-0.166-0.352-0.761-1.364-0.989-1.692c-0.387-0.178-1.463-0.565-1.91-0.674l8.479,0.456c0.447,0.108,1.523,0.495,1.91,0.673
						c0.228,0.329,0.823,1.342,0.989,1.693C588.126,832.014,588.369,833.222,588.365,833.746z"/>
				</defs>
				<clipPath id="SVGID_18_">
					<use xlink:href="#SVGID_17_"  overflow="visible"/>
				</clipPath>
				<g clip-path="url(#SVGID_18_)" enable-background="new    ">
					<path fill="#8F0907" d="M588.365,833.746l-8.479-0.456c0.004-0.524-0.239-1.731-0.538-3.5
						c-0.166-0.352-0.761-1.364-0.989-1.692c-0.387-0.178-1.463-0.565-1.91-0.674l8.479,0.456c0.447,0.108,1.523,0.495,1.91,0.673
						c0.228,0.329,0.823,1.342,0.989,1.693C588.126,832.014,588.369,833.222,588.365,833.746"/>
				</g>
			</g>
			<g>
				<polygon fill="#970D0B" points="581.514,838.658 573.035,838.202 579.858,838.202 588.337,838.658 				"/>
			</g>
			<g>
				<polygon fill="#A81313" points="599.331,839.763 598.337,838.658 615.739,838.658 616.733,839.763 				"/>
			</g>
			<g>
				<polygon fill="#900A07" points="591.222,839.763 588.337,838.658 588.365,833.746 591.255,833.851 				"/>
			</g>
			<g>
				<polygon fill="#8B0804" points="570.869,854.73 562.39,854.275 562.529,829.926 571.008,830.381 				"/>
			</g>
			<g enable-background="new    ">
				<defs>
					<path id="SVGID_19_" enable-background="new    " d="M576.75,811.358c2.827,0.151,5.653,0.304,8.48,0.456
						c-0.402-0.022-0.821-0.024-1.258-0.007c-3.16-0.118-5.427,0.755-7.507,2.286c-2.36,1.606-3.52,3.233-4.297,6.045
						c-0.75,2.425-1.215,5.724-1.16,10.242l-8.479-0.455c-0.056-4.52,0.409-7.818,1.159-10.243c0.778-2.812,1.938-4.438,4.298-6.045
						c2.08-1.531,4.347-2.404,7.507-2.286C575.93,811.334,576.349,811.336,576.75,811.358z"/>
				</defs>
				<clipPath id="SVGID_20_">
					<use xlink:href="#SVGID_19_"  overflow="visible"/>
				</clipPath>
				<g clip-path="url(#SVGID_20_)" enable-background="new    ">
					<path fill="#8F0907" d="M571.008,830.381l-8.479-0.455c-0.056-4.52,0.409-7.818,1.159-10.243
						c0.584-2.113,1.385-3.558,2.749-4.827l8.479,0.456c-1.364,1.27-2.165,2.714-2.749,4.827
						C571.417,822.563,570.952,825.862,571.008,830.381"/>
					<path fill="#920B09" d="M574.917,815.312l-8.479-0.456c0.451-0.419,0.962-0.819,1.549-1.218
						c0.698-0.514,1.417-0.953,2.183-1.306l8.479,0.455c-0.766,0.354-1.485,0.793-2.183,1.307
						C575.879,814.492,575.367,814.893,574.917,815.312"/>
					<path fill="#960D0B" d="M578.648,812.787l-8.479-0.455c1.277-0.589,2.687-0.937,4.353-0.984l8.479,0.455
						C581.335,811.852,579.926,812.199,578.648,812.787"/>
					<path fill="#9A0E0D" d="M583.001,811.803l-8.479-0.455c0.314-0.01,0.638-0.008,0.971,0.004
						c0.438-0.018,0.856-0.016,1.258,0.007l8.479,0.456c-0.402-0.022-0.821-0.024-1.258-0.007
						C583.639,811.795,583.315,811.794,583.001,811.803"/>
				</g>
			</g>
			<g enable-background="new    ">
				<defs>
					<path id="SVGID_21_" enable-background="new    " d="M583.074,828.43c0.693-0.383,1.261-0.709,1.616-0.915
						c0.61-0.353,1.34-0.53,2.189-0.53c0.936,0,1.768,0.298,2.488,0.883c0.711,0.594,1.158,1.35,1.332,2.276
						c0.373,1.835,0.562,3.068,0.558,3.707l-2.89-0.104c0.004-0.524-0.239-1.732-0.539-3.5c-0.166-0.352-0.761-1.364-0.989-1.693
						c-0.387-0.178-1.463-0.564-1.91-0.673C584.406,827.957,583.66,828.106,583.074,828.43z"/>
				</defs>
				<clipPath id="SVGID_22_">
					<use xlink:href="#SVGID_21_"  overflow="visible"/>
				</clipPath>
				<g clip-path="url(#SVGID_22_)" enable-background="new    ">
					<path fill="#8F0907" d="M591.255,833.851l-2.89-0.104c0.004-0.524-0.239-1.732-0.539-3.5c-0.166-0.352-0.761-1.364-0.989-1.693
						c-0.387-0.178-1.463-0.564-1.91-0.673c-0.521,0.077-1.268,0.227-1.854,0.55l1.347-0.742c0.661-0.468,1.481-0.703,2.458-0.703
						c0.936,0,1.768,0.298,2.488,0.883c0.711,0.594,1.158,1.35,1.332,2.276C591.07,831.979,591.259,833.212,591.255,833.851"/>
				</g>
			</g>
			<g>
				<polygon fill="#A81313" points="582.508,839.763 581.514,838.658 588.337,838.658 591.222,839.763 				"/>
			</g>
			<g>
				<polygon fill="#8B0704" points="616.653,853.836 615.647,854.73 570.869,854.73 573.765,853.836 				"/>
			</g>
			<g>
				<polygon fill="#900A07" points="573.765,853.836 570.869,854.73 571.008,830.381 573.898,830.486 				"/>
			</g>
			<g>
				<path fill="#DC1F21" d="M600.354,835.093c-0.67,1.007-1.008,2.15-1.016,3.428l-0.007,1.242h17.402l-0.08,14.073h-42.888
					l0.133-23.35c0.025-4.338,0.401-7.641,1.111-9.935c0.72-2.286,2.032-4.13,3.938-5.534c1.906-1.403,4.233-2.105,6.964-2.105
					c2.375,0,4.422,0.54,6.144,1.61c1.721,1.071,3.108,2.546,4.178,4.428c0.674,1.196,1.226,2.834,1.665,4.922
					c0.537-1.674,1.072-2.889,1.604-3.653c0.351-0.513,1.104-1.26,2.268-2.241c1.153-0.972,2.043-1.629,2.675-1.962l12.462-6.784
					l-0.09,15.838l-13.148,7.485C601.971,833.509,600.859,834.354,600.354,835.093z M591.222,839.763l0.034-5.912
					c0.004-0.639-0.185-1.872-0.558-3.707c-0.173-0.927-0.62-1.683-1.332-2.276c-0.72-0.585-1.552-0.883-2.488-0.883
					c-1.378,0-2.445,0.469-3.191,1.396c-0.754,0.927-1.13,2.673-1.145,5.229l-0.035,6.154H591.222"/>
			</g>
			<g enable-background="new    ">
				<defs>
					<path id="SVGID_23_" enable-background="new    " d="M591.044,813.845c0.433,0.288,0.876,0.561,1.3,0.863
						c-0.095-0.063-0.191-0.125-0.289-0.186c-1.722-1.07-3.769-1.61-6.144-1.61c-2.731,0-5.059,0.702-6.964,2.105
						c-1.905,1.404-3.218,3.248-3.938,5.534c-0.71,2.294-1.086,5.597-1.111,9.935l-2.891-0.105c-0.056-4.519,0.41-7.817,1.16-10.242
						c0.778-2.812,1.937-4.438,4.297-6.045c2.081-1.531,4.348-2.404,7.507-2.286c2.742-0.113,4.743,0.58,6.621,1.747
						C590.746,813.65,590.896,813.747,591.044,813.845z"/>
				</defs>
				<clipPath id="SVGID_24_">
					<use xlink:href="#SVGID_23_"  overflow="visible"/>
				</clipPath>
				<g clip-path="url(#SVGID_24_)" enable-background="new    ">
					<path fill="#8F0907" d="M573.898,830.486l-2.891-0.105c-0.056-4.519,0.41-7.817,1.16-10.242c0.097-0.352,0.2-0.685,0.311-1.001
						l2.829,0.578c-0.108,0.271-0.208,0.55-0.298,0.836C574.299,822.846,573.923,826.148,573.898,830.486"/>
					<path fill="#920B09" d="M575.308,819.716l-2.829-0.578c0.25-0.714,0.538-1.345,0.882-1.92l2.821,0.764
						C575.843,818.524,575.552,819.103,575.308,819.716"/>
					<path fill="#960D0B" d="M576.182,817.981l-2.821-0.764c0.331-0.551,0.713-1.051,1.165-1.521l2.76,0.82
						C576.875,816.973,576.506,817.461,576.182,817.981"/>
					<path fill="#9A0E0D" d="M577.286,816.517l-2.76-0.82c0.54-0.563,1.177-1.084,1.939-1.603c0.202-0.148,0.406-0.291,0.612-0.428
						l2.437,0.963c-0.193,0.123-0.382,0.252-0.567,0.389C578.332,815.471,577.777,815.971,577.286,816.517"/>
					<path fill="#9E100F" d="M579.514,814.629l-2.437-0.963c0.565-0.372,1.148-0.696,1.763-0.965l2.351,1.064
						C580.602,814.004,580.043,814.291,579.514,814.629"/>
					<path fill="#A11110" d="M581.19,813.766l-2.351-1.064c0.792-0.346,1.637-0.601,2.562-0.75l2.209,1.143
						C582.755,813.235,581.948,813.459,581.19,813.766"/>
					<path fill="#A51212" d="M583.61,813.094l-2.209-1.143c0.792-0.127,1.643-0.178,2.571-0.144c2.742-0.113,4.743,0.58,6.621,1.747
						c0.153,0.096,0.303,0.192,0.451,0.29l1.429,0.95c-0.137-0.094-0.276-0.185-0.417-0.272c-1.722-1.07-3.769-1.61-6.144-1.61
						C585.109,812.912,584.342,812.973,583.61,813.094"/>
				</g>
			</g>
		</g>
		<g enable-background="new    ">
			<g>
				<polygon fill="#8B0704" points="589.247,783.072 588.24,784.316 588.297,774.355 589.288,775.813 				"/>
			</g>
			<g>
				<polygon fill="#8B0704" points="562.688,787.633 561.693,786.836 561.78,771.549 562.783,770.961 				"/>
			</g>
			<g>
				<polygon fill="#8B0804" points="597.727,783.527 589.247,783.072 589.288,775.813 597.768,776.269 				"/>
			</g>
			<g>
				<polygon fill="#A61313" points="609.866,788.022 608.871,787.171 615.939,789.385 616.935,790.236 				"/>
			</g>
			<g>
				<polygon fill="#8B0704" points="617.051,769.847 616.047,770.484 608.954,772.751 609.957,772.114 				"/>
			</g>
			<g>
				<polygon fill="#900A07" points="600.609,784.981 597.727,783.527 597.768,776.269 600.666,775.021 				"/>
			</g>
			<g>
				<polygon fill="#8B0704" points="615.845,805.883 607.365,805.428 562.688,787.633 571.168,788.089 				"/>
			</g>
			<g>
				<polygon fill="#8B0804" points="571.168,788.089 562.688,787.633 562.783,770.961 571.263,771.416 				"/>
			</g>
			<g>
				<polygon fill="#960D0B" points="571.263,771.416 562.783,770.961 607.663,753.167 616.143,753.623 				"/>
			</g>
			<g>
				<polygon fill="#A61313" points="585.227,780.023 586.516,779.914 597.727,783.527 600.609,784.981 				"/>
			</g>
			<g>
				<polygon fill="#8B0704" points="600.666,775.021 597.768,776.269 586.516,779.914 585.227,780.023 				"/>
			</g>
			<g>
				<polygon fill="#8B0704" points="616.853,804.544 615.845,805.883 571.168,788.089 574.062,787.501 				"/>
			</g>
			<g>
				<polygon fill="#900A07" points="574.062,787.501 571.168,788.089 571.263,771.416 574.149,772.214 				"/>
			</g>
			<g>
				<path fill="#DC1F21" d="M617.051,769.847l-7.094,2.268l-0.091,15.908l7.068,2.214l-0.082,14.308l-42.791-17.043l0.087-15.287
					l42.984-17.043L617.051,769.847z M600.609,784.981l0.057-9.961l-15.439,5.003L600.609,784.981"/>
			</g>
			<g>
				<polygon fill="#A61212" points="574.149,772.214 571.263,771.416 616.143,753.623 617.134,755.171 				"/>
			</g>
		</g>
		<g enable-background="new    ">
			<g>
				<polygon fill="#8B0704" points="596.261,730.206 595.256,731.102 595.275,727.664 596.274,727.769 				"/>
			</g>
			<g enable-background="new    ">
				<defs>
					<path id="SVGID_25_" enable-background="new    " d="M592.597,719.326c0.433,0.315,0.869,0.626,1.296,0.947
						c0.675,0.491,1.286,1.067,1.603,1.714c0.512,1.041,0.677,3.126,0.778,5.781l-0.999-0.104c0.017-2.925-0.278-5.003-0.884-6.245
						C593.993,720.607,593.395,719.909,592.597,719.326z"/>
				</defs>
				<clipPath id="SVGID_26_">
					<use xlink:href="#SVGID_25_"  overflow="visible"/>
				</clipPath>
				<g clip-path="url(#SVGID_26_)" enable-background="new    ">
					<path fill="#8F0907" d="M596.274,727.769l-0.999-0.104c0.017-2.925-0.278-5.003-0.884-6.245
						c-0.398-0.812-0.997-1.51-1.795-2.093l1.252,0.914c0.692,0.5,1.323,1.086,1.647,1.747
						C596.008,723.028,596.173,725.113,596.274,727.769"/>
				</g>
			</g>
			<g>
				<polygon fill="#8B0704" points="563.025,746.216 562.031,745.111 562.15,724.299 563.149,724.403 				"/>
			</g>
			<g enable-background="new    ">
				<defs>
					<path id="SVGID_27_" enable-background="new    " d="M571.195,706.151c0.547-0.301,1.094-0.603,1.642-0.903
						c-1.11,0.612-2.131,1.337-3.115,2.156c-2.107,1.76-3.73,3.746-4.851,6.651c-1.134,2.673-1.798,5.975-1.722,10.348l-1-0.104
						c0.023-4.104,0.57-7.424,1.639-9.943c1.069-2.528,2.588-4.616,4.571-6.271C569.24,707.35,570.186,706.706,571.195,706.151z"/>
				</defs>
				<clipPath id="SVGID_28_">
					<use xlink:href="#SVGID_27_"  overflow="visible"/>
				</clipPath>
				<g clip-path="url(#SVGID_28_)" enable-background="new    ">
					<path fill="#8F0907" d="M563.149,724.403l-1-0.104c0.023-4.104,0.57-7.424,1.639-9.943c1.069-2.528,2.588-4.616,4.571-6.271
						c0.934-0.778,1.941-1.456,3.02-2.032l1.457-0.804c-1.11,0.612-2.131,1.337-3.115,2.156c-2.107,1.76-3.73,3.746-4.851,6.651
						C563.737,716.729,563.074,720.03,563.149,724.403"/>
				</g>
			</g>
			<g>
				<polygon fill="#8B0804" points="604.74,730.662 596.261,730.206 596.274,727.769 604.754,728.225 				"/>
			</g>
			<g enable-background="new    ">
				<defs>
					<path id="SVGID_29_" enable-background="new    " d="M587.267,718.632c2.826,0.151,5.652,0.304,8.479,0.456
						c2.452,0.132,4.357,0.381,5.49,0.903c1.047,0.616,2.247,1.447,2.74,2.452c0.511,1.041,0.677,3.126,0.778,5.781l-8.479-0.456
						c-0.102-2.655-0.267-4.74-0.778-5.781c-0.493-1.004-1.693-1.836-2.74-2.452C591.624,719.013,589.719,718.764,587.267,718.632z"
						/>
				</defs>
				<clipPath id="SVGID_30_">
					<use xlink:href="#SVGID_29_"  overflow="visible"/>
				</clipPath>
				<g clip-path="url(#SVGID_30_)" enable-background="new    ">
					<path fill="#8F0907" d="M604.754,728.225l-8.479-0.456c-0.102-2.655-0.267-4.74-0.778-5.781
						c-0.493-1.004-1.693-1.836-2.74-2.452c-1.132-0.522-3.038-0.771-5.49-0.903l8.479,0.456c2.452,0.132,4.357,0.381,5.49,0.903
						c1.047,0.616,2.247,1.447,2.74,2.452C604.486,723.484,604.652,725.569,604.754,728.225"/>
				</g>
			</g>
			<g>
				<polygon fill="#900A07" points="607.625,731.767 604.74,730.662 604.754,728.225 607.645,728.329 				"/>
			</g>
			<g>
				<polygon fill="#970D0B" points="583.204,730.662 574.725,730.206 596.261,730.206 604.74,730.662 				"/>
			</g>
			<g>
				<polygon fill="#8B0804" points="571.504,746.672 563.025,746.216 563.149,724.403 571.628,724.859 				"/>
			</g>
			<g enable-background="new    ">
				<defs>
					<path id="SVGID_31_" enable-background="new    " d="M588.577,702.536c2.827,0.151,5.653,0.304,8.48,0.456
						c-0.958-0.052-1.976-0.067-3.059-0.044c-3.102-0.073-5.857,0.378-8.558,1.149c-2.912,0.721-5.157,2.028-7.239,3.763
						c-2.107,1.76-3.73,3.746-4.851,6.651c-1.134,2.673-1.798,5.975-1.723,10.348l-8.479-0.456
						c-0.076-4.373,0.588-7.675,1.722-10.348c1.12-2.905,2.743-4.892,4.851-6.651c2.082-1.734,4.327-3.042,7.239-3.763
						c2.7-0.771,5.455-1.222,8.557-1.149C586.601,702.469,587.619,702.484,588.577,702.536z"/>
				</defs>
				<clipPath id="SVGID_32_">
					<use xlink:href="#SVGID_31_"  overflow="visible"/>
				</clipPath>
				<g clip-path="url(#SVGID_32_)" enable-background="new    ">
					<path fill="#8F0907" d="M571.628,724.859l-8.479-0.456c-0.076-4.373,0.588-7.675,1.722-10.348
						c0.965-2.503,2.303-4.323,4.003-5.905l8.479,0.456c-1.7,1.581-3.038,3.402-4.003,5.905
						C572.217,717.185,571.553,720.486,571.628,724.859"/>
					<path fill="#920B09" d="M577.354,708.606l-8.479-0.456c0.273-0.254,0.556-0.502,0.848-0.746
						c1.295-1.078,2.653-1.992,4.195-2.702l8.479,0.455c-1.542,0.711-2.901,1.624-4.195,2.703
						C577.91,708.104,577.627,708.353,577.354,708.606"/>
					<path fill="#960D0B" d="M582.397,705.157l-8.479-0.455c0.938-0.432,1.943-0.788,3.044-1.061
						c2.272-0.649,4.584-1.071,7.109-1.146l8.479,0.456c-2.525,0.074-4.837,0.496-7.11,1.146
						C584.34,704.37,583.334,704.727,582.397,705.157"/>
					<path fill="#9A0E0D" d="M592.55,702.952l-8.479-0.456c0.475-0.014,0.957-0.016,1.448-0.004
						c1.083-0.023,2.101-0.008,3.059,0.044l8.479,0.456c-0.958-0.052-1.976-0.067-3.059-0.044
						C593.507,702.937,593.025,702.938,592.55,702.952"/>
				</g>
			</g>
			<g enable-background="new    ">
				<defs>
					<path id="SVGID_33_" enable-background="new    " d="M586.406,720.453c0.271-0.144,0.543-0.288,0.814-0.433
						c0.275-0.146,0.555-0.284,0.824-0.441c1.807-0.97,4.5-1.454,8.076-1.454c3.429,0,5.912,0.352,7.439,1.053
						c1.528,0.701,2.595,1.674,3.2,2.906c0.605,1.242,0.9,3.32,0.884,6.245l-2.891-0.104c-0.102-2.655-0.268-4.74-0.778-5.781
						c-0.493-1.005-1.693-1.836-2.74-2.452c-1.364-0.63-3.851-0.862-7.065-0.972C590.792,719.15,588.074,719.569,586.406,720.453z"
						/>
				</defs>
				<clipPath id="SVGID_34_">
					<use xlink:href="#SVGID_33_"  overflow="visible"/>
				</clipPath>
				<g clip-path="url(#SVGID_34_)" enable-background="new    ">
					<path fill="#8F0907" d="M607.645,728.329l-2.891-0.104c-0.102-2.655-0.268-4.74-0.778-5.781
						c-0.493-1.005-1.693-1.836-2.74-2.452c-1.364-0.63-3.851-0.862-7.065-0.972c-3.377,0.131-6.096,0.55-7.764,1.434l1.435-0.76
						c1.806-1.046,4.567-1.568,8.28-1.568c3.429,0,5.912,0.352,7.439,1.053c1.528,0.701,2.595,1.674,3.2,2.906
						C607.366,723.326,607.661,725.404,607.645,728.329"/>
				</g>
			</g>
			<g>
				<polygon fill="#A81313" points="584.198,731.767 583.204,730.662 604.74,730.662 607.625,731.767 				"/>
			</g>
			<g>
				<polygon fill="#8B0704" points="617.288,745.776 616.283,746.672 571.504,746.672 574.4,745.776 				"/>
			</g>
			<g>
				<polygon fill="#900A07" points="574.4,745.776 571.504,746.672 571.628,724.859 574.519,724.964 				"/>
			</g>
			<g enable-background="new    ">
				<defs>
					<path id="SVGID_35_" enable-background="new    " d="M608.412,706.513c0.195,0.139,0.392,0.276,0.587,0.415
						c0.044,0.031,0.103,0.072,0.146,0.104c0.021,0.016,0.051,0.036,0.073,0.052c0.021,0.016,0.051,0.036,0.072,0.052
						c0.195,0.138,0.38,0.29,0.585,0.413c-1.004-0.709-2.099-1.323-3.285-1.841c-2.522-1.106-6.067-1.654-10.654-1.654
						c-2.927,0-5.695,0.367-8.312,1.114c-2.616,0.738-4.921,1.936-6.896,3.582c-1.983,1.655-3.502,3.743-4.571,6.271
						c-1.07,2.52-1.616,5.84-1.639,9.943l-2.891-0.104c-0.075-4.373,0.588-7.675,1.723-10.348c1.12-2.905,2.743-4.892,4.851-6.651
						c2.082-1.734,4.327-3.042,7.239-3.763c2.7-0.771,5.456-1.223,8.558-1.149c4.813-0.104,8.347,0.562,11.014,1.73
						C606.292,705.188,607.408,705.802,608.412,706.513z"/>
				</defs>
				<clipPath id="SVGID_36_">
					<use xlink:href="#SVGID_35_"  overflow="visible"/>
				</clipPath>
				<g clip-path="url(#SVGID_36_)" enable-background="new    ">
					<path fill="#8F0907" d="M574.519,724.964l-2.891-0.104c-0.071-4.147,0.522-7.331,1.551-9.929l2.817,0.486
						C575.034,717.885,574.541,721.072,574.519,724.964"/>
					<path fill="#920B09" d="M575.997,715.417l-2.817-0.486c0.056-0.142,0.113-0.28,0.172-0.419
						c0.441-1.144,0.959-2.145,1.555-3.046l2.725,0.773c-0.561,0.859-1.052,1.786-1.473,2.781
						C576.103,715.15,576.049,715.283,575.997,715.417"/>
					<path fill="#960D0B" d="M577.631,712.239l-2.725-0.773c0.658-0.995,1.409-1.868,2.252-2.675l2.59,0.85
						C578.956,710.424,578.25,711.29,577.631,712.239"/>
					<path fill="#9A0E0D" d="M579.749,709.641l-2.59-0.85c0.333-0.319,0.681-0.628,1.043-0.931c0.568-0.474,1.149-0.915,1.752-1.322
						l2.467,0.962c-0.588,0.383-1.152,0.799-1.691,1.249C580.389,709.033,580.062,709.33,579.749,709.641"/>
					<path fill="#9E100F" d="M582.421,707.5l-2.467-0.962c0.924-0.623,1.901-1.164,2.968-1.611l2.372,1.054
						C584.28,706.408,583.322,706.915,582.421,707.5"/>
					<path fill="#A11110" d="M585.294,705.98l-2.372-1.054c0.786-0.329,1.621-0.607,2.519-0.829c1.467-0.419,2.949-0.743,4.495-0.94
						l2.088,1.127c-1.512,0.184-2.977,0.478-4.398,0.883C586.818,705.395,586.041,705.666,585.294,705.98"/>
					<path fill="#A51212" d="M592.024,704.284l-2.088-1.127c1.3-0.166,2.645-0.242,4.063-0.209c4.813-0.104,8.347,0.562,11.014,1.73
						c1.335,0.53,2.491,1.176,3.528,1.925l1.336,0.944c-1.004-0.709-2.099-1.323-3.285-1.841c-2.522-1.106-6.067-1.654-10.654-1.654
						C594.6,704.053,593.295,704.129,592.024,704.284"/>
				</g>
			</g>
			<g>
				<path fill="#DC1F21" d="M616.288,716.604c0.757,3.077,1.133,5.857,1.118,8.359l-0.118,20.813H574.4l0.119-20.813
					c0.023-4.104,0.569-7.424,1.639-9.943c1.069-2.528,2.588-4.616,4.571-6.271c1.975-1.646,4.28-2.844,6.896-3.582
					c2.617-0.747,5.384-1.114,8.312-1.114c4.586,0,8.131,0.548,10.654,1.654c2.521,1.099,4.631,2.638,6.321,4.589
					C614.611,712.258,615.731,714.363,616.288,716.604z M607.625,731.767l0.02-3.438c0.017-2.925-0.278-5.003-0.884-6.245
					c-0.605-1.232-1.672-2.205-3.2-2.906c-1.527-0.701-4.011-1.053-7.439-1.053c-4.544,0-7.664,0.783-9.349,2.349
					c-1.686,1.565-2.534,4.166-2.555,7.802l-0.02,3.491H607.625"/>
			</g>
		</g>
		<g enable-background="new    ">
			<g>
				<polygon fill="#8B0704" points="563.234,691.821 562.241,690.717 562.321,676.671 563.326,675.775 				"/>
			</g>
			<g>
				<polygon fill="#970D0B" points="571.806,676.231 563.326,675.775 608.104,675.775 616.584,676.231 				"/>
			</g>
			<g>
				<polygon fill="#8B0804" points="571.714,692.277 563.234,691.821 563.326,675.775 571.806,676.231 				"/>
			</g>
			<g>
				<polygon fill="#8B0704" points="617.498,691.382 616.492,692.277 571.714,692.277 574.61,691.382 				"/>
			</g>
			<g>
				<polygon fill="#A81313" points="574.69,677.336 571.806,676.231 616.584,676.231 617.578,677.336 				"/>
			</g>
			<g>
				<polygon fill="#900A07" points="574.61,691.382 571.714,692.277 571.806,676.231 574.69,677.336 				"/>
			</g>
			<g>
				<polygon fill="#DC1F21" points="617.578,677.336 617.498,691.382 574.61,691.382 574.69,677.336 				"/>
			</g>
		</g>
		<g enable-background="new    ">
			<g enable-background="new    ">
				<defs>
					<path id="SVGID_37_" enable-background="new    " d="M592.92,632.595c0.502,0.337,0.996,0.687,1.509,1.008
						c0.188,0.125,0.36,0.257,0.516,0.396c1.612,1.439,2.323,3.899,2.41,6.227c-0.104,2.23-1.225,4.901-2.545,6.185l-1.336,0.657
						c1.907-1.71,2.865-4.022,2.882-6.946c0.017-3.016-0.898-5.345-2.744-6.992C593.4,632.94,593.17,632.763,592.92,632.595z"/>
				</defs>
				<clipPath id="SVGID_38_">
					<use xlink:href="#SVGID_37_"  overflow="visible"/>
				</clipPath>
				<g clip-path="url(#SVGID_38_)" enable-background="new    ">
					<path fill="#8F0907" d="M594.81,646.41l-1.336,0.657c1.907-1.71,2.865-4.022,2.882-6.946c0.017-3.016-0.898-5.345-2.744-6.992
						c-0.211-0.188-0.442-0.366-0.692-0.534l1.404,0.939c0.229,0.145,0.436,0.3,0.621,0.465c1.612,1.439,2.323,3.899,2.41,6.227
						C597.25,642.456,596.13,645.127,594.81,646.41"/>
				</g>
			</g>
			<g enable-background="new    ">
				<defs>
					<path id="SVGID_39_" enable-background="new    " d="M593.667,647.195c-0.219,0.117-0.438,0.234-0.658,0.352
						c-0.332,0.178-0.67,0.346-0.997,0.535c0.548-0.295,1.036-0.634,1.461-1.015l1.336-0.657
						C594.483,646.703,594.101,646.965,593.667,647.195z"/>
				</defs>
				<clipPath id="SVGID_40_">
					<use xlink:href="#SVGID_39_"  overflow="visible"/>
				</clipPath>
				<g clip-path="url(#SVGID_40_)" enable-background="new    ">
					<path fill="#8F0907" d="M593.469,647.297l-1.457,0.785c0.548-0.295,1.036-0.634,1.461-1.015l1.336-0.657
						C594.435,646.747,593.985,647.041,593.469,647.297"/>
				</g>
			</g>
			<g enable-background="new    ">
				<defs>
					<path id="SVGID_41_" enable-background="new    " d="M572.168,661.053c-0.528-0.368-1.051-0.744-1.586-1.102
						c-1.052-0.729-2.021-1.564-2.909-2.509c-3.874-4.121-5.798-9.871-5.756-17.231c0.043-7.55,1.999-13.363,5.852-17.448
						c1.27-1.347,2.705-2.47,4.307-3.371l0,0c0.247-0.139,0.493-0.277,0.739-0.417c0.165-0.093,0.329-0.186,0.494-0.279
						c0.138-0.077,0.281-0.146,0.413-0.233c-1.731,0.98-3.276,2.219-4.675,3.701c-4.056,4.302-6.203,10.021-6.13,18.152
						c-0.161,7.954,1.957,13.605,6.029,17.938C569.939,659.312,571.009,660.246,572.168,661.053z"/>
				</defs>
				<clipPath id="SVGID_42_">
					<use xlink:href="#SVGID_41_"  overflow="visible"/>
				</clipPath>
				<g clip-path="url(#SVGID_42_)" enable-background="new    ">
					<path fill="#8F0907" d="M572.168,661.053l-1.38-0.961c-1.132-0.761-2.17-1.644-3.115-2.649
						c-3.874-4.121-5.798-9.871-5.756-17.231c0.043-7.55,1.999-13.363,5.852-17.448c1.329-1.409,2.839-2.574,4.532-3.496
						l1.421-0.805c-1.731,0.98-3.276,2.219-4.675,3.701c-4.056,4.302-6.203,10.021-6.13,18.152
						c-0.161,7.954,1.957,13.605,6.029,17.938C569.939,659.312,571.009,660.246,572.168,661.053"/>
				</g>
			</g>
			<g enable-background="new    ">
				<defs>
					<path id="SVGID_43_" enable-background="new    " d="M586.546,631.801c2.826,0.152,5.652,0.304,8.479,0.456
						c3.928,0.211,6.908,0.86,8.399,2.198c1.611,1.438,2.322,3.898,2.41,6.226c-0.104,2.231-1.225,4.902-2.545,6.186l-8.479-0.456
						c1.32-1.283,2.44-3.954,2.545-6.185c-0.087-2.327-0.798-4.787-2.41-6.227C593.453,632.661,590.473,632.013,586.546,631.801z"/>
				</defs>
				<clipPath id="SVGID_44_">
					<use xlink:href="#SVGID_43_"  overflow="visible"/>
				</clipPath>
				<g clip-path="url(#SVGID_44_)" enable-background="new    ">
					<path fill="#8F0907" d="M603.289,646.866l-8.479-0.456c1.32-1.283,2.44-3.954,2.545-6.185c-0.087-2.327-0.798-4.787-2.41-6.227
						c-1.492-1.338-4.472-1.986-8.399-2.198l8.479,0.456c3.928,0.211,6.908,0.86,8.399,2.198c1.611,1.438,2.322,3.898,2.41,6.226
						C605.729,642.912,604.609,645.583,603.289,646.866"/>
				</g>
			</g>
			<g enable-background="new    ">
				<defs>
					<path id="SVGID_45_" enable-background="new    " d="M593.915,649.145c-2.827-0.151-5.653-0.304-8.479-0.455
						c0.213,0.011,0.429,0.021,0.647,0.029c3.894-0.148,7.055-0.807,8.727-2.309l8.479,0.456c-1.672,1.502-4.833,2.159-8.727,2.309
						C594.344,649.166,594.128,649.156,593.915,649.145z"/>
				</defs>
				<clipPath id="SVGID_46_">
					<use xlink:href="#SVGID_45_"  overflow="visible"/>
				</clipPath>
				<g clip-path="url(#SVGID_46_)" enable-background="new    ">
					<path fill="#9A0E0D" d="M593.915,649.145l-8.479-0.455c0.192,0.01,0.386,0.019,0.582,0.026l8.479,0.456
						C594.301,649.164,594.107,649.155,593.915,649.145"/>
					<path fill="#960D0B" d="M594.497,649.172l-8.479-0.456c0.021,0.001,0.043,0.002,0.065,0.003
						c2.906-0.111,5.403-0.506,7.179-1.322l8.479,0.456c-1.775,0.816-4.272,1.211-7.178,1.322
						C594.54,649.174,594.519,649.173,594.497,649.172"/>
					<path fill="#920B09" d="M601.74,647.853l-8.479-0.456c0.604-0.278,1.124-0.604,1.548-0.986l8.479,0.456
						C602.864,647.248,602.345,647.574,601.74,647.853"/>
				</g>
			</g>
			<g enable-background="new    ">
				<defs>
					<path id="SVGID_47_" enable-background="new    " d="M592.076,665.151l-8.479-0.456c-6.35-0.341-11.01-2.568-14.652-6.441
						c-4.072-4.333-6.19-9.984-6.029-17.938c-0.073-8.131,2.074-13.851,6.13-18.152c4.056-4.3,9.344-6.538,16.808-6.414
						c0.899-0.02,1.763-0.006,2.593,0.038c2.827,0.152,5.653,0.305,8.479,0.456c-0.83-0.045-1.693-0.058-2.593-0.039
						c-7.463-0.123-12.752,2.115-16.808,6.415c-4.056,4.302-6.203,10.021-6.13,18.151c-0.161,7.954,1.956,13.605,6.029,17.939
						C581.065,662.583,585.726,664.81,592.076,665.151z"/>
				</defs>
				<clipPath id="SVGID_48_">
					<use xlink:href="#SVGID_47_"  overflow="visible"/>
				</clipPath>
				<g clip-path="url(#SVGID_48_)" enable-background="new    ">
					<path fill="#8F0907" d="M592.076,665.151l-8.479-0.456c-6.35-0.341-11.01-2.568-14.652-6.441
						c-4.072-4.333-6.19-9.984-6.029-17.938c-0.073-8.131,2.074-13.851,6.13-18.152c0.326-0.345,0.66-0.678,1.002-0.996l8.479,0.456
						c-0.342,0.318-0.676,0.65-1.002,0.996c-4.056,4.302-6.203,10.021-6.13,18.151c-0.161,7.954,1.956,13.605,6.029,17.939
						C581.065,662.583,585.726,664.81,592.076,665.151"/>
					<path fill="#920B09" d="M578.527,621.623l-8.479-0.456c1.516-1.412,3.197-2.56,5.087-3.429l8.479,0.456
						C581.725,619.063,580.043,620.211,578.527,621.623"/>
					<path fill="#960D0B" d="M583.615,618.194l-8.479-0.456c2.621-1.207,5.643-1.879,9.179-1.98l8.479,0.455
						C589.258,616.315,586.236,616.987,583.615,618.194"/>
					<path fill="#9A0E0D" d="M592.794,616.213l-8.479-0.455c0.503-0.015,1.016-0.018,1.539-0.009
						c0.899-0.02,1.763-0.006,2.593,0.038l8.479,0.456c-0.83-0.045-1.693-0.058-2.593-0.039
						C593.81,616.196,593.296,616.199,592.794,616.213"/>
				</g>
			</g>
			<g enable-background="new    ">
				<defs>
					<path id="SVGID_49_" enable-background="new    " d="M587.932,648.348c-0.23-0.154-0.46-0.31-0.69-0.463
						c-0.152-0.103-0.305-0.205-0.458-0.307c-0.126-0.085-0.248-0.177-0.379-0.254c1.762,1.178,4.655,1.718,8.157,1.851
						c3.894-0.149,7.055-0.807,8.727-2.309l2.554,0.866c-1.899,1.7-5.019,2.547-9.342,2.547
						C592.706,650.279,589.849,649.635,587.932,648.348z"/>
				</defs>
				<clipPath id="SVGID_50_">
					<use xlink:href="#SVGID_49_"  overflow="visible"/>
				</clipPath>
				<g clip-path="url(#SVGID_50_)" enable-background="new    ">
					<path fill="#A51212" d="M587.797,648.255l-1.392-0.931c1.762,1.178,4.655,1.718,8.157,1.851c1.439-0.056,2.779-0.18,3.98-0.391
						l2.259,1.147c-1.268,0.231-2.701,0.348-4.3,0.348C592.616,650.279,589.714,649.604,587.797,648.255"/>
					<path fill="#A11110" d="M600.801,649.932l-2.259-1.147c1.024-0.181,1.948-0.423,2.748-0.739l2.396,1.04
						C602.845,649.451,601.883,649.733,600.801,649.932"/>
					<path fill="#9E100F" d="M603.686,649.085l-2.396-1.04c0.474-0.188,0.903-0.4,1.284-0.642l2.478,0.94
						C604.639,648.621,604.184,648.867,603.686,649.085"/>
					<path fill="#9A0E0D" d="M605.052,648.344l-2.478-0.94c0.262-0.166,0.501-0.345,0.715-0.537l2.554,0.866
						C605.599,647.95,605.336,648.154,605.052,648.344"/>
				</g>
			</g>
			<g enable-background="new    ">
				<defs>
					<path id="SVGID_51_" enable-background="new    " d="M587.058,633.694c0.554-0.297,1.106-0.598,1.66-0.896
						c1.814-0.985,4.247-1.479,7.305-1.479c4.799,0,8.113,0.827,9.958,2.475c1.846,1.647,2.761,3.977,2.743,6.991
						c-0.017,2.925-0.974,5.237-2.881,6.947l-2.554-0.866c1.32-1.283,2.44-3.954,2.545-6.186c-0.088-2.327-0.799-4.787-2.41-6.226
						c-1.61-1.444-4.954-2.086-9.353-2.24C591.245,632.328,588.783,632.77,587.058,633.694z"/>
				</defs>
				<clipPath id="SVGID_52_">
					<use xlink:href="#SVGID_51_"  overflow="visible"/>
				</clipPath>
				<g clip-path="url(#SVGID_52_)" enable-background="new    ">
					<path fill="#9A0E0D" d="M605.843,647.732l-2.554-0.866c0.027-0.026,0.055-0.054,0.082-0.082l2.59,0.841
						C605.922,647.661,605.882,647.697,605.843,647.732"/>
					<path fill="#960D0B" d="M605.961,647.625l-2.59-0.841c0.374-0.382,0.73-0.873,1.05-1.433l2.905,0.643
						C606.947,646.587,606.492,647.131,605.961,647.625"/>
					<path fill="#920B09" d="M607.326,645.994l-2.905-0.643c0.351-0.612,0.656-1.306,0.895-2.024l2.978,0.541
						C608.063,644.637,607.74,645.345,607.326,645.994"/>
					<path fill="#8F0907" d="M608.293,643.868l-2.978-0.541c0.29-0.878,0.479-1.794,0.519-2.646
						c-0.088-2.327-0.799-4.787-2.41-6.226c-1.61-1.444-4.954-2.086-9.353-2.24c-2.826,0.113-5.288,0.555-7.014,1.479l1.439-0.771
						c1.836-1.067,4.341-1.604,7.525-1.604c4.799,0,8.113,0.827,9.958,2.475c1.846,1.647,2.761,3.977,2.743,6.991
						C608.718,641.902,608.574,642.93,608.293,643.868"/>
				</g>
			</g>
			<g>
				<path fill="#DC1F21" d="M616.04,627.711c1.759,3.375,2.629,7.577,2.601,12.607c-0.029,5.119-0.819,9.349-2.379,12.705
					c-1.56,3.347-4.018,6.064-7.365,8.143c-3.347,2.088-7.522,3.132-12.535,3.132c-7.003,0-12.446-2.069-16.319-6.19
					c-3.874-4.121-5.798-9.871-5.756-17.232c0.043-7.549,1.999-13.362,5.852-17.447c3.852-4.085,9.233-6.119,16.135-6.119
					c5.012,0,9.117,0.892,12.314,2.673C611.794,621.763,614.271,624.346,616.04,627.711z M605.843,647.732
					c1.907-1.71,2.864-4.022,2.881-6.947c0.018-3.015-0.897-5.344-2.743-6.991c-1.845-1.647-5.159-2.475-9.958-2.475
					c-4.042,0-6.991,0.863-8.865,2.583c-1.874,1.719-2.814,4.058-2.832,7.009c-0.016,2.826,0.916,5.093,2.795,6.803
					s5.006,2.565,9.38,2.565C600.824,650.279,603.943,649.433,605.843,647.732"/>
			</g>
			<g enable-background="new    ">
				<defs>
					<path id="SVGID_53_" enable-background="new    " d="M607.71,661.845c-0.307,0.16-0.613,0.32-0.92,0.48
						c-0.084,0.044-0.168,0.088-0.252,0.132c-0.05,0.026-0.117,0.062-0.167,0.088c-0.025,0.013-0.06,0.03-0.084,0.044
						c-0.084,0.044-0.161,0.102-0.253,0.132c-3.208,1.68-6.947,2.574-11.623,2.472c-7.563,0.123-12.913-2.149-16.987-6.482
						c-4.073-4.334-6.19-9.985-6.029-17.939c-0.073-8.13,2.074-13.85,6.13-18.151c4.056-4.3,9.344-6.538,16.808-6.415
						c5.323-0.114,9.397,0.919,12.753,2.787c0.945,0.493,1.802,1.022,2.585,1.602c0.266,0.197,0.535,0.39,0.801,0.588
						c-0.598-0.434-1.226-0.833-1.885-1.199c-3.197-1.781-7.303-2.673-12.314-2.673c-6.902,0-12.283,2.034-16.135,6.119
						c-3.853,4.085-5.809,9.898-5.852,17.447c-0.042,7.361,1.882,13.111,5.756,17.232c3.874,4.121,9.316,6.19,16.319,6.19
						C600.798,664.298,604.578,663.48,607.71,661.845z"/>
				</defs>
				<clipPath id="SVGID_54_">
					<use xlink:href="#SVGID_53_"  overflow="visible"/>
				</clipPath>
				<g clip-path="url(#SVGID_54_)" enable-background="new    ">
					<path fill="#8F0907" d="M607.71,661.845l-1.52,0.793c-3.242,1.733-7.027,2.659-11.779,2.555
						c-7.563,0.123-12.913-2.149-16.987-6.482c-4.073-4.334-6.19-9.985-6.029-17.939c-0.038-4.176,0.511-7.716,1.603-10.755
						l2.866,0.6c-1.03,2.963-1.557,6.383-1.579,10.26c-0.042,7.361,1.882,13.111,5.756,17.232c3.874,4.121,9.316,6.19,16.319,6.19
						C600.798,664.298,604.578,663.48,607.71,661.845"/>
					<path fill="#920B09" d="M575.864,630.615l-2.866-0.6c0.644-1.791,1.477-3.408,2.489-4.879l2.721,0.715
						C577.252,627.28,576.471,628.868,575.864,630.615"/>
					<path fill="#960D0B" d="M578.208,625.852l-2.721-0.715c0.614-0.891,1.293-1.729,2.038-2.518
						c0.227-0.241,0.458-0.476,0.694-0.704l2.581,0.845c-0.226,0.217-0.447,0.439-0.663,0.668
						C579.431,624.178,578.788,624.985,578.208,625.852"/>
					<path fill="#9A0E0D" d="M580.8,622.76l-2.581-0.845c0.807-0.781,1.661-1.486,2.569-2.112l2.501,0.962
						C582.403,621.354,581.573,622.02,580.8,622.76"/>
					<path fill="#9E100F" d="M583.289,620.765l-2.501-0.962c0.915-0.631,1.886-1.182,2.918-1.65l2.434,1.06
						C585.132,619.652,584.182,620.17,583.289,620.765"/>
					<path fill="#A11110" d="M586.14,619.212l-2.434-1.06c1.594-0.724,3.336-1.251,5.251-1.574l2.261,1.14
						C589.389,618.033,587.696,618.531,586.14,619.212"/>
					<path fill="#A51212" d="M591.218,617.718l-2.261-1.14c1.657-0.279,3.443-0.405,5.375-0.374
						c5.323-0.114,9.397,0.919,12.753,2.787c0.945,0.493,1.802,1.022,2.585,1.602l1.271,0.941c-0.736-0.571-1.521-1.09-2.355-1.553
						c-3.197-1.781-7.303-2.673-12.314-2.673C594.485,617.309,592.801,617.445,591.218,617.718"/>
				</g>
			</g>
		</g>
		<g enable-background="new    ">
			<g>
				<polygon fill="#8B0704" points="563.878,579.011 562.884,577.906 562.964,563.86 563.969,562.965 				"/>
			</g>
			<g>
				<polygon fill="#970D0B" points="572.449,563.421 563.969,562.965 608.748,562.965 617.228,563.421 				"/>
			</g>
			<g>
				<polygon fill="#8B0804" points="572.357,579.467 563.878,579.011 563.969,562.965 572.449,563.421 				"/>
			</g>
			<g>
				<polygon fill="#8B0704" points="618.141,578.571 617.136,579.467 572.357,579.467 575.253,578.571 				"/>
			</g>
			<g>
				<polygon fill="#A81313" points="575.333,564.525 572.449,563.421 617.228,563.421 618.221,564.525 				"/>
			</g>
			<g>
				<polygon fill="#900A07" points="575.253,578.571 572.357,579.467 572.449,563.421 575.333,564.525 				"/>
			</g>
			<g>
				<polygon fill="#DC1F21" points="618.221,564.525 618.141,578.571 575.253,578.571 575.333,564.525 				"/>
			</g>
		</g>
		<g enable-background="new    ">
			<g>
				<polygon fill="#8C0805" points="564.126,535.451 563.124,535.876 586.954,518.807 585.822,519.911 				"/>
			</g>
			<g>
				<polygon fill="#8B0704" points="564.043,550.064 563.049,548.96 563.124,535.876 564.126,535.451 				"/>
			</g>
			<g>
				<polygon fill="#8B0704" points="564.215,519.911 563.221,518.807 563.296,505.598 564.301,504.702 				"/>
			</g>
			<g>
				<polygon fill="#970D0B" points="595.961,535.347 587.481,534.891 608.908,534.891 617.388,535.347 				"/>
			</g>
			<g>
				<polygon fill="#A81313" points="594.835,536.451 595.961,535.347 617.388,535.347 618.381,536.451 				"/>
			</g>
			<g>
				<polygon fill="#8B0804" points="572.522,550.521 564.043,550.064 564.126,535.451 572.605,535.907 				"/>
			</g>
			<g>
				<polygon fill="#940C0A" points="572.605,535.907 564.126,535.451 585.822,519.911 594.301,520.367 				"/>
			</g>
			<g>
				<polygon fill="#8B0804" points="572.694,520.367 564.215,519.911 564.301,504.702 572.781,505.158 				"/>
			</g>
			<g>
				<polygon fill="#970D0B" points="572.781,505.158 564.301,504.702 609.08,504.702 617.56,505.158 				"/>
			</g>
			<g>
				<polygon fill="#8B0704" points="618.306,549.625 617.301,550.521 572.522,550.521 575.418,549.625 				"/>
			</g>
			<g>
				<polygon fill="#A21111" points="575.493,536.541 572.605,535.907 594.301,520.367 599.323,519.472 				"/>
			</g>
			<g>
				<polygon fill="#900A07" points="575.418,549.625 572.522,550.521 572.605,535.907 575.493,536.541 				"/>
			</g>
			<g>
				<polygon fill="#8B0704" points="599.323,519.472 594.301,520.367 572.694,520.367 575.59,519.472 				"/>
			</g>
			<g>
				<polygon fill="#900A07" points="575.59,519.472 572.694,520.367 572.781,505.158 575.666,506.263 				"/>
			</g>
			<g>
				<polygon fill="#DC1F21" points="618.553,506.263 618.478,519.472 594.835,536.451 618.381,536.451 618.306,549.625 
					575.418,549.625 575.493,536.541 599.323,519.472 575.59,519.472 575.666,506.263 				"/>
			</g>
			<g>
				<polygon fill="#A81313" points="575.666,506.263 572.781,505.158 617.56,505.158 618.553,506.263 				"/>
			</g>
		</g>
		<g enable-background="new    ">
			<g>
				<polygon fill="#8B0704" points="564.352,495.822 563.358,494.718 563.602,452.121 564.606,451.226 				"/>
			</g>
			<g>
				<polygon fill="#970D0B" points="585.489,465.971 577.01,465.515 609.304,465.515 617.783,465.971 				"/>
			</g>
			<g>
				<polygon fill="#8B0804" points="572.832,496.278 564.352,495.822 564.606,451.226 573.085,451.682 				"/>
			</g>
			<g>
				<polygon fill="#970D0B" points="573.085,451.682 564.606,451.226 577.091,451.226 585.57,451.682 				"/>
			</g>
			<g>
				<polygon fill="#8B0704" points="618.696,481.095 617.691,481.99 585.398,481.99 586.403,481.095 				"/>
			</g>
			<g>
				<polygon fill="#A81313" points="586.483,467.075 585.489,465.971 617.783,465.971 618.776,467.075 				"/>
			</g>
			<g>
				<polygon fill="#8B0704" points="586.321,495.383 585.316,496.278 572.832,496.278 575.728,495.383 				"/>
			</g>
			<g>
				<polygon fill="#900A07" points="575.728,495.383 572.832,496.278 573.085,451.682 575.97,452.786 				"/>
			</g>
			<g>
				<polygon fill="#A81313" points="575.97,452.786 573.085,451.682 585.57,451.682 586.564,452.786 				"/>
			</g>
			<g>
				<polygon fill="#DC1F21" points="586.564,452.786 586.483,467.075 618.776,467.075 618.696,481.095 586.403,481.095 
					586.321,495.383 575.728,495.383 575.97,452.786 				"/>
			</g>
		</g>
		<g enable-background="new    ">
			<g>
				<polygon fill="#8B0704" points="597.928,426.12 596.923,427.016 597.062,402.829 598.066,401.934 				"/>
			</g>
			<g>
				<polygon fill="#8B0704" points="580.722,426.12 579.717,427.016 579.841,405.204 580.846,404.309 				"/>
			</g>
			<g>
				<polygon fill="#8B0704" points="564.658,442.167 563.665,441.063 563.878,403.504 564.883,402.609 				"/>
			</g>
			<g>
				<polygon fill="#8B0804" points="606.407,426.576 597.928,426.12 598.066,401.934 606.546,402.39 				"/>
			</g>
			<g>
				<polygon fill="#970D0B" points="606.546,402.39 598.066,401.934 609.666,401.934 618.146,402.39 				"/>
			</g>
			<g>
				<polygon fill="#970D0B" points="599.84,426.576 591.36,426.12 597.928,426.12 606.407,426.576 				"/>
			</g>
			<g>
				<polygon fill="#A81313" points="609.43,403.494 606.546,402.39 618.146,402.39 619.139,403.494 				"/>
			</g>
			<g>
				<polygon fill="#900A07" points="609.292,427.681 606.407,426.576 606.546,402.39 609.43,403.494 				"/>
			</g>
			<g>
				<polygon fill="#8B0804" points="589.201,426.576 580.722,426.12 580.846,404.309 589.325,404.765 				"/>
			</g>
			<g>
				<polygon fill="#970D0B" points="589.325,404.765 580.846,404.309 591.485,404.309 599.964,404.765 				"/>
			</g>
			<g>
				<polygon fill="#970D0B" points="584.276,426.576 575.797,426.12 580.722,426.12 589.201,426.576 				"/>
			</g>
			<g>
				<polygon fill="#A81313" points="600.834,427.681 599.84,426.576 606.407,426.576 609.292,427.681 				"/>
			</g>
			<g>
				<polygon fill="#A81313" points="592.21,405.869 589.325,404.765 599.964,404.765 600.958,405.869 				"/>
			</g>
			<g>
				<polygon fill="#900A07" points="592.086,427.681 589.201,426.576 589.325,404.765 592.21,405.869 				"/>
			</g>
			<g>
				<polygon fill="#970D0B" points="573.363,403.064 564.883,402.609 575.931,402.609 584.41,403.064 				"/>
			</g>
			<g>
				<polygon fill="#8B0804" points="573.137,442.623 564.658,442.167 564.883,402.609 573.363,403.064 				"/>
			</g>
			<g>
				<polygon fill="#A81313" points="585.27,427.681 584.276,426.576 589.201,426.576 592.086,427.681 				"/>
			</g>
			<g>
				<polygon fill="#8B0704" points="618.921,441.728 617.916,442.623 573.137,442.623 576.033,441.728 				"/>
			</g>
			<g>
				<polygon fill="#900A07" points="576.033,441.728 573.137,442.623 573.363,403.064 576.248,404.169 				"/>
			</g>
			<g>
				<polygon fill="#DC1F21" points="619.139,403.494 618.921,441.728 576.033,441.728 576.248,404.169 585.404,404.169 
					585.27,427.681 592.086,427.681 592.21,405.869 600.958,405.869 600.834,427.681 609.292,427.681 609.43,403.494 				"/>
			</g>
			<g>
				<polygon fill="#A81313" points="576.248,404.169 573.363,403.064 584.41,403.064 585.404,404.169 				"/>
			</g>
		</g>
		<g enable-background="new    ">
			<g>
				<polygon fill="#8C0805" points="596.242,351.73 594.715,352.52 607.178,345.735 610.077,344.198 				"/>
			</g>
			<g enable-background="new    ">
				<defs>
					<path id="SVGID_55_" enable-background="new    " d="M590.39,357.188c-0.465,0.34-0.66,0.581-0.899,0.961
						c0.244-0.411,0.57-0.959,0.814-1.371C590.382,357.053,590.407,357.177,590.39,357.188z"/>
				</defs>
				<clipPath id="SVGID_56_">
					<use xlink:href="#SVGID_55_"  overflow="visible"/>
				</clipPath>
				<g clip-path="url(#SVGID_56_)" enable-background="new    ">
					<path fill="#8F0907" d="M590.39,357.188l-0.97,0.688c0.054,0.159,0.08,0.258,0.071,0.273l0.814-1.371
						C590.382,357.053,590.407,357.177,590.39,357.188"/>
				</g>
			</g>
			<g enable-background="new    ">
				<defs>
					<path id="SVGID_57_" enable-background="new    " d="M590.11,357.497c-0.269,0.227-0.417,0.358-0.601,0.63
						c-0.489,0.725-0.896,1.498-1.341,2.249c0.538-1.674,1.072-2.888,1.604-3.653c0.352-0.513,1.104-1.26,2.268-2.241
						c1.154-0.98,2.043-1.628,2.675-1.961l1.527-0.79c-0.714,0.376-1.645,0.976-2.846,2.077c-1.305,1.003-2.018,1.817-2.442,2.434
						C590.59,356.766,590.222,357.403,590.11,357.497z"/>
				</defs>
				<clipPath id="SVGID_58_">
					<use xlink:href="#SVGID_57_"  overflow="visible"/>
				</clipPath>
				<g clip-path="url(#SVGID_58_)" enable-background="new    ">
					<path fill="#8F0907" d="M590.305,356.779l-2.136,3.597c0.538-1.674,1.072-2.888,1.604-3.653
						c0.352-0.513,1.104-1.26,2.268-2.241c1.154-0.98,2.043-1.628,2.675-1.961l1.527-0.79c-0.714,0.376-1.645,0.976-2.846,2.077
						c-1.305,1.003-2.018,1.817-2.442,2.434C590.35,357.112,589.732,358.296,590.305,356.779"/>
				</g>
			</g>
			<g>
				<polygon fill="#8B0704" points="582.497,375.371 581.492,376.266 581.525,370.354 582.525,370.459 				"/>
			</g>
			<g enable-background="new    ">
				<defs>
					<path id="SVGID_59_" enable-background="new    " d="M580.445,364.903l0.555,0.365c0.222,0.317,0.819,1.341,0.986,1.691
						c0.299,1.768,0.542,2.976,0.539,3.5l-1-0.104c0.004-0.639-0.185-1.872-0.558-3.708c-0.173-0.926-0.62-1.691-1.332-2.276
						c-0.081-0.066-0.163-0.128-0.247-0.186l0,0C579.739,364.428,580.09,364.668,580.445,364.903z"/>
				</defs>
				<clipPath id="SVGID_60_">
					<use xlink:href="#SVGID_59_"  overflow="visible"/>
				</clipPath>
				<g clip-path="url(#SVGID_60_)" enable-background="new    ">
					<path fill="#8F0907" d="M582.525,370.459l-1-0.104c0.004-0.639-0.185-1.872-0.558-3.708c-0.173-0.926-0.62-1.691-1.332-2.276
						c-0.081-0.066-0.163-0.128-0.247-0.186l1.455,1.016c0.059,0.024,0.112,0.047,0.155,0.067c0.222,0.317,0.819,1.341,0.986,1.691
						C582.286,368.727,582.529,369.935,582.525,370.459"/>
				</g>
			</g>
			<g>
				<polygon fill="#8B0704" points="565.029,391.444 564.035,390.339 564.168,366.989 565.167,367.094 				"/>
			</g>
			<g enable-background="new    ">
				<defs>
					<path id="SVGID_61_" enable-background="new    " d="M570.462,350.736c0.573-0.306,1.151-0.603,1.718-0.922
						c-0.536,0.289-1.051,0.622-1.555,0.993c-2.36,1.606-3.52,3.233-4.297,6.044c-0.75,2.416-1.215,5.724-1.16,10.243l-0.999-0.104
						c0.025-4.337,0.401-7.648,1.111-9.934c0.72-2.286,2.032-4.13,3.938-5.534C569.614,351.229,570.029,350.967,570.462,350.736z"/>
				</defs>
				<clipPath id="SVGID_62_">
					<use xlink:href="#SVGID_61_"  overflow="visible"/>
				</clipPath>
				<g clip-path="url(#SVGID_62_)" enable-background="new    ">
					<path fill="#8F0907" d="M565.167,367.094l-0.999-0.104c0.025-4.337,0.401-7.648,1.111-9.934c0.72-2.286,2.032-4.13,3.938-5.534
						c0.462-0.34,0.948-0.639,1.459-0.896l1.503-0.811c-0.536,0.289-1.051,0.622-1.555,0.993c-2.36,1.606-3.52,3.233-4.297,6.044
						C565.577,359.267,565.112,362.575,565.167,367.094"/>
				</g>
			</g>
			<g>
				<polygon fill="#950C0A" points="604.722,352.186 596.242,351.73 610.077,344.198 618.557,344.654 				"/>
			</g>
			<g>
				<polygon fill="#970D0B" points="600.977,375.827 592.497,375.371 609.899,375.371 618.379,375.827 				"/>
			</g>
			<g enable-background="new    ">
				<defs>
					<path id="SVGID_63_" enable-background="new    " d="M598.567,357.964c-2.827-0.152-5.653-0.304-8.479-0.456
						c0.071,0.004,0.472-0.699,0.867-1.268c0.424-0.616,1.137-1.431,2.442-2.434c1.201-1.101,2.132-1.7,2.846-2.077l8.479,0.456
						c-0.714,0.377-1.645,0.977-2.846,2.077c-1.306,1.003-2.019,1.817-2.441,2.434C599.039,357.266,598.639,357.968,598.567,357.964
						z"/>
				</defs>
				<clipPath id="SVGID_64_">
					<use xlink:href="#SVGID_63_"  overflow="visible"/>
				</clipPath>
				<g clip-path="url(#SVGID_64_)" enable-background="new    ">
					<polyline fill="#960D0B" points="598.567,357.964 590.088,357.509 590.1,357.505 598.579,357.961 598.567,357.964 					"/>
					<path fill="#920B09" d="M598.579,357.961l-8.479-0.456c0.005-0.003,0.012-0.008,0.02-0.016l8.479,0.456
						C598.591,357.952,598.585,357.958,598.579,357.961"/>
					<path fill="#8F0907" d="M598.599,357.945l-8.479-0.456c0.12-0.116,0.48-0.736,0.835-1.249c0.281-0.408,0.688-0.903,1.311-1.483
						l8.479,0.456c-0.623,0.579-1.03,1.074-1.311,1.482C599.078,357.209,598.719,357.829,598.599,357.945"/>
					<path fill="#920B09" d="M600.745,355.214l-8.479-0.456c0.317-0.295,0.69-0.612,1.131-0.951c1.201-1.101,2.132-1.7,2.846-2.077
						l8.479,0.456c-0.714,0.377-1.645,0.977-2.846,2.077C601.436,354.602,601.063,354.918,600.745,355.214"/>
				</g>
			</g>
			<g enable-background="new    ">
				<defs>
					<path id="SVGID_65_" enable-background="new    " d="M598.866,357.646c-2.827-0.152-5.653-0.304-8.479-0.456
						c0.023,0.001,0-0.12-0.082-0.411l8.479,0.456C598.866,357.525,598.889,357.646,598.866,357.646z"/>
				</defs>
				<clipPath id="SVGID_66_">
					<use xlink:href="#SVGID_65_"  overflow="visible"/>
				</clipPath>
				<g clip-path="url(#SVGID_66_)" enable-background="new    ">
					<polyline fill="#960D0B" points="598.866,357.646 590.387,357.189 590.391,357.188 598.87,357.644 598.866,357.646 					"/>
					<polyline fill="#920B09" points="598.87,357.644 590.391,357.188 590.393,357.184 598.872,357.64 598.87,357.644 					"/>
					<path fill="#8F0907" d="M598.872,357.64l-8.479-0.456c0.01-0.026-0.017-0.151-0.088-0.405l8.479,0.456
						C598.855,357.489,598.882,357.614,598.872,357.64"/>
				</g>
			</g>
			<g enable-background="new    ">
				<defs>
					<path id="SVGID_67_" enable-background="new    " d="M599.648,359.111c-0.263-0.526-0.506-0.783-1.085-1.147
						c0.058,0.036,0.467-0.685,0.871-1.267c0.423-0.616,1.136-1.431,2.441-2.434c1.201-1.1,2.132-1.7,2.846-2.077l2.362,0.999
						c-0.632,0.333-1.521,0.981-2.675,1.961c-1.163,0.98-1.916,1.728-2.268,2.241c-0.532,0.765-1.066,1.979-1.604,3.653
						L599.648,359.111z"/>
				</defs>
				<clipPath id="SVGID_68_">
					<use xlink:href="#SVGID_67_"  overflow="visible"/>
				</clipPath>
				<g clip-path="url(#SVGID_68_)" enable-background="new    ">
					<path fill="#8F0907" d="M600.537,361.041l-1.753-3.806c-0.068,0.18-0.119,0.323-0.156,0.432l2.102,2.796
						C600.665,360.649,600.602,360.841,600.537,361.041"/>
					<path fill="#920B09" d="M600.729,360.463l-2.102-2.796c-0.27,0.809,0.272-0.202,0.807-0.97
						c0.005-0.008,0.011-0.016,0.016-0.023l2.705,0.695c-0.005,0.006-0.009,0.013-0.014,0.02
						C601.673,358.062,601.202,359.084,600.729,360.463"/>
					<path fill="#960D0B" d="M602.155,357.368l-2.705-0.695c0.226-0.324,0.529-0.702,0.957-1.132l2.643,0.824
						C602.642,356.763,602.344,357.097,602.155,357.368"/>
					<path fill="#9A0E0D" d="M603.05,356.365l-2.643-0.824c0.381-0.385,0.86-0.811,1.469-1.278c0.814-0.746,1.505-1.262,2.087-1.634
						l2.431,0.977c-0.541,0.365-1.202,0.876-1.984,1.542C603.867,355.604,603.414,356.01,603.05,356.365"/>
					<path fill="#9E100F" d="M606.394,353.605l-2.431-0.977c0.276-0.177,0.529-0.321,0.759-0.442l2.362,0.999
						C606.881,353.292,606.65,353.432,606.394,353.605"/>
				</g>
			</g>
			<g enable-background="new    ">
				<defs>
					<path id="SVGID_69_" enable-background="new    " d="M599.288,358.329c-0.122-0.252-0.203-0.389-0.445-0.704
						c0.054,0.07,0.042-0.031-0.059-0.39L599.288,358.329z"/>
				</defs>
				<clipPath id="SVGID_70_">
					<use xlink:href="#SVGID_69_"  overflow="visible"/>
				</clipPath>
				<g clip-path="url(#SVGID_70_)" enable-background="new    ">
					<path fill="#9A0E0D" d="M599.205,358.095l-0.362-0.47c0.033,0.043,0.041,0.021,0.02-0.085l0.436,0.801
						C599.289,358.31,599.257,358.223,599.205,358.095"/>
					<path fill="#960D0B" d="M599.298,358.34l-0.436-0.801c-0.01-0.048-0.026-0.113-0.049-0.197l0.483,1.005
						C599.302,358.356,599.303,358.354,599.298,358.34"/>
					<path fill="#920B09" d="M599.297,358.347l-0.483-1.005c-0.009-0.033-0.019-0.068-0.029-0.107l0.504,1.094
						C599.292,358.336,599.295,358.342,599.297,358.347"/>
				</g>
			</g>
			<g>
				<polygon fill="#8B0804" points="590.976,375.827 582.497,375.371 582.525,370.459 591.004,370.915 				"/>
			</g>
			<g>
				<polygon fill="#A41212" points="607.084,353.185 604.722,352.186 618.557,344.654 619.546,346.4 				"/>
			</g>
			<g enable-background="new    ">
				<defs>
					<path id="SVGID_71_" enable-background="new    " d="M591.004,370.915l-8.479-0.456c0.004-0.524-0.239-1.732-0.539-3.5
						c-0.167-0.351-0.764-1.374-0.986-1.691c-0.389-0.18-1.465-0.565-1.913-0.674l8.479,0.456c0.447,0.108,1.523,0.495,1.913,0.674
						c0.222,0.317,0.819,1.341,0.986,1.691C590.765,369.183,591.008,370.39,591.004,370.915z"/>
				</defs>
				<clipPath id="SVGID_72_">
					<use xlink:href="#SVGID_71_"  overflow="visible"/>
				</clipPath>
				<g clip-path="url(#SVGID_72_)" enable-background="new    ">
					<path fill="#8F0907" d="M591.004,370.915l-8.479-0.456c0.004-0.524-0.239-1.732-0.539-3.5
						c-0.167-0.351-0.764-1.374-0.986-1.691c-0.389-0.18-1.465-0.565-1.913-0.674l8.479,0.456c0.447,0.108,1.523,0.495,1.913,0.674
						c0.222,0.317,0.819,1.341,0.986,1.691C590.765,369.183,591.008,370.39,591.004,370.915"/>
				</g>
			</g>
			<g>
				<polygon fill="#970D0B" points="584.153,375.827 575.674,375.371 582.497,375.371 590.976,375.827 				"/>
			</g>
			<g>
				<polygon fill="#A81313" points="601.97,376.931 600.977,375.827 618.379,375.827 619.372,376.931 				"/>
			</g>
			<g>
				<polygon fill="#900A07" points="593.861,376.931 590.976,375.827 591.004,370.915 593.895,371.02 				"/>
			</g>
			<g>
				<polygon fill="#8B0804" points="573.508,391.9 565.029,391.444 565.167,367.094 573.647,367.55 				"/>
			</g>
			<g enable-background="new    ">
				<defs>
					<path id="SVGID_73_" enable-background="new    " d="M579.39,348.526c2.827,0.152,5.653,0.304,8.479,0.456
						c-0.402-0.022-0.821-0.024-1.258-0.006c-3.16-0.118-5.427,0.755-7.507,2.286c-2.36,1.606-3.52,3.233-4.297,6.044
						c-0.75,2.416-1.216,5.725-1.16,10.243l-8.479-0.456c-0.056-4.519,0.41-7.827,1.16-10.243c0.777-2.811,1.938-4.438,4.297-6.044
						c2.081-1.532,4.348-2.405,7.507-2.286C578.569,348.502,578.988,348.505,579.39,348.526z"/>
				</defs>
				<clipPath id="SVGID_74_">
					<use xlink:href="#SVGID_73_"  overflow="visible"/>
				</clipPath>
				<g clip-path="url(#SVGID_74_)" enable-background="new    ">
					<path fill="#8F0907" d="M573.647,367.55l-8.479-0.456c-0.056-4.519,0.41-7.827,1.16-10.243
						c0.584-2.113,1.385-3.557,2.749-4.826l8.479,0.456c-1.364,1.27-2.165,2.713-2.749,4.826
						C574.056,359.723,573.591,363.031,573.647,367.55"/>
					<path fill="#920B09" d="M577.556,352.48l-8.479-0.456c0.45-0.419,0.962-0.82,1.548-1.218c0.698-0.514,1.417-0.954,2.184-1.307
						l8.479,0.456c-0.767,0.353-1.486,0.793-2.184,1.307C578.518,351.661,578.006,352.062,577.556,352.48"/>
					<path fill="#960D0B" d="M581.288,349.956l-8.479-0.456c1.277-0.588,2.687-0.936,4.352-0.984l8.479,0.456
						C583.975,349.02,582.565,349.368,581.288,349.956"/>
					<path fill="#9A0E0D" d="M585.64,348.972l-8.479-0.456c0.314-0.009,0.638-0.008,0.971,0.005
						c0.438-0.018,0.856-0.016,1.258,0.006l8.479,0.456c-0.402-0.022-0.82-0.024-1.258-0.006
						C586.278,348.964,585.954,348.962,585.64,348.972"/>
				</g>
			</g>
			<g enable-background="new    ">
				<defs>
					<path id="SVGID_75_" enable-background="new    " d="M585.712,365.599c0.799-0.44,1.608-0.91,1.616-0.915
						c0.61-0.353,1.341-0.53,2.19-0.53c0.936,0,1.768,0.297,2.488,0.882c0.711,0.585,1.158,1.35,1.332,2.276
						c0.373,1.835,0.562,3.069,0.558,3.708l-2.891-0.105c0.004-0.524-0.239-1.732-0.538-3.5c-0.167-0.351-0.764-1.374-0.986-1.691
						c-0.389-0.18-1.465-0.566-1.913-0.674C587.045,365.126,586.298,365.276,585.712,365.599z"/>
				</defs>
				<clipPath id="SVGID_76_">
					<use xlink:href="#SVGID_75_"  overflow="visible"/>
				</clipPath>
				<g clip-path="url(#SVGID_76_)" enable-background="new    ">
					<path fill="#8F0907" d="M593.895,371.02l-2.891-0.105c0.004-0.524-0.239-1.732-0.538-3.5c-0.167-0.351-0.764-1.374-0.986-1.691
						c-0.389-0.18-1.465-0.566-1.913-0.674c-0.521,0.077-1.269,0.227-1.855,0.549l1.347-0.742c0.661-0.467,1.481-0.703,2.459-0.703
						c0.936,0,1.768,0.297,2.488,0.882c0.711,0.585,1.158,1.35,1.332,2.276C593.709,369.147,593.898,370.381,593.895,371.02"/>
				</g>
			</g>
			<g>
				<polygon fill="#A81313" points="585.147,376.931 584.153,375.827 590.976,375.827 593.861,376.931 				"/>
			</g>
			<g>
				<polygon fill="#8B0704" points="619.292,391.004 618.287,391.9 573.508,391.9 576.404,391.004 				"/>
			</g>
			<g>
				<polygon fill="#900A07" points="576.404,391.004 573.508,391.9 573.647,367.55 576.538,367.654 				"/>
			</g>
			<g>
				<path fill="#DC1F21" d="M602.992,372.261c-0.669,1.008-1.008,2.15-1.015,3.429l-0.008,1.241h17.402l-0.08,14.073h-42.888
					l0.133-23.35c0.024-4.337,0.401-7.648,1.111-9.934c0.719-2.286,2.032-4.13,3.938-5.534c1.906-1.403,4.233-2.105,6.964-2.105
					c2.375,0,4.422,0.54,6.144,1.611c1.722,1.071,3.109,2.546,4.178,4.427c0.675,1.196,1.227,2.834,1.665,4.922
					c0.538-1.674,1.072-2.888,1.604-3.653c0.352-0.513,1.104-1.26,2.268-2.241c1.154-0.98,2.043-1.628,2.675-1.961l12.462-6.785
					l-0.09,15.837l-13.147,7.486C604.609,370.669,603.499,371.514,602.992,372.261z M593.861,376.931l0.034-5.912
					c0.004-0.639-0.185-1.872-0.558-3.708c-0.174-0.927-0.62-1.691-1.332-2.276c-0.72-0.585-1.552-0.882-2.488-0.882
					c-1.379,0-2.445,0.468-3.191,1.395c-0.754,0.926-1.13,2.672-1.145,5.228l-0.035,6.154H593.861"/>
			</g>
			<g enable-background="new    ">
				<defs>
					<path id="SVGID_77_" enable-background="new    " d="M593.685,351.015c0.432,0.288,0.875,0.56,1.298,0.862
						c-0.095-0.063-0.191-0.125-0.289-0.186c-1.721-1.071-3.769-1.611-6.144-1.611c-2.731,0-5.058,0.702-6.964,2.105
						c-1.906,1.404-3.218,3.249-3.938,5.534c-0.71,2.286-1.087,5.597-1.111,9.934l-2.891-0.104
						c-0.056-4.519,0.409-7.827,1.16-10.243c0.777-2.811,1.937-4.438,4.297-6.044c2.081-1.531,4.347-2.404,7.507-2.286
						c2.742-0.113,4.743,0.58,6.621,1.748C593.386,350.819,593.537,350.917,593.685,351.015z"/>
				</defs>
				<clipPath id="SVGID_78_">
					<use xlink:href="#SVGID_77_"  overflow="visible"/>
				</clipPath>
				<g clip-path="url(#SVGID_78_)" enable-background="new    ">
					<path fill="#8F0907" d="M576.538,367.654l-2.891-0.104c-0.056-4.519,0.409-7.827,1.16-10.243c0.097-0.351,0.2-0.684,0.311-1
						l2.829,0.578c-0.108,0.271-0.208,0.55-0.297,0.835C576.938,360.006,576.562,363.317,576.538,367.654"/>
					<path fill="#920B09" d="M577.946,356.885l-2.829-0.578c0.25-0.713,0.538-1.345,0.882-1.92l2.821,0.764
						C578.482,355.694,578.19,356.271,577.946,356.885"/>
					<path fill="#960D0B" d="M578.821,355.151L576,354.387c0.331-0.551,0.713-1.051,1.165-1.521l2.761,0.82
						C579.513,354.142,579.146,354.63,578.821,355.151"/>
					<path fill="#9A0E0D" d="M579.925,353.686l-2.761-0.82c0.54-0.563,1.177-1.084,1.94-1.604c0.203-0.149,0.407-0.292,0.613-0.428
						l2.437,0.962c-0.193,0.124-0.383,0.253-0.568,0.39C580.971,352.64,580.417,353.14,579.925,353.686"/>
					<path fill="#9E100F" d="M582.154,351.796l-2.437-0.962c0.565-0.373,1.148-0.696,1.762-0.965l2.35,1.064
						C583.242,351.172,582.683,351.459,582.154,351.796"/>
					<path fill="#A11110" d="M583.83,350.934l-2.35-1.064c0.792-0.346,1.636-0.601,2.562-0.75l2.208,1.142
						C585.395,350.403,584.588,350.627,583.83,350.934"/>
					<path fill="#A51212" d="M586.25,350.262l-2.208-1.142c0.792-0.128,1.643-0.179,2.57-0.144c2.742-0.113,4.743,0.58,6.621,1.748
						c0.153,0.095,0.304,0.192,0.453,0.291l1.428,0.949c-0.138-0.094-0.277-0.185-0.419-0.273c-1.721-1.071-3.769-1.611-6.144-1.611
						C587.749,350.081,586.981,350.141,586.25,350.262"/>
				</g>
			</g>
		</g>
		<g enable-background="new    ">
			<g>
				<polygon fill="#8B0704" points="598.524,321.589 597.52,322.484 597.657,298.297 598.662,297.402 				"/>
			</g>
			<g>
				<polygon fill="#8B0704" points="581.318,321.589 580.313,322.484 580.437,300.672 581.442,299.777 				"/>
			</g>
			<g>
				<polygon fill="#8B0704" points="565.254,337.634 564.26,336.53 564.475,298.972 565.479,298.076 				"/>
			</g>
			<g>
				<polygon fill="#8B0804" points="607.004,322.044 598.524,321.589 598.662,297.402 607.142,297.857 				"/>
			</g>
			<g>
				<polygon fill="#970D0B" points="607.142,297.857 598.662,297.402 610.262,297.402 618.741,297.857 				"/>
			</g>
			<g>
				<polygon fill="#970D0B" points="600.436,322.044 591.957,321.589 598.524,321.589 607.004,322.044 				"/>
			</g>
			<g>
				<polygon fill="#A81313" points="610.026,298.962 607.142,297.857 618.741,297.857 619.735,298.962 				"/>
			</g>
			<g>
				<polygon fill="#900A07" points="609.889,323.149 607.004,322.044 607.142,297.857 610.026,298.962 				"/>
			</g>
			<g>
				<polygon fill="#8B0804" points="589.797,322.044 581.318,321.589 581.442,299.777 589.921,300.233 				"/>
			</g>
			<g>
				<polygon fill="#970D0B" points="589.921,300.233 581.442,299.777 592.081,299.777 600.561,300.233 				"/>
			</g>
			<g>
				<polygon fill="#970D0B" points="584.872,322.044 576.393,321.589 581.318,321.589 589.797,322.044 				"/>
			</g>
			<g>
				<polygon fill="#A81313" points="601.43,323.149 600.436,322.044 607.004,322.044 609.889,323.149 				"/>
			</g>
			<g>
				<polygon fill="#A81313" points="592.806,301.337 589.921,300.233 600.561,300.233 601.554,301.337 				"/>
			</g>
			<g>
				<polygon fill="#900A07" points="592.682,323.149 589.797,322.044 589.921,300.233 592.806,301.337 				"/>
			</g>
			<g>
				<polygon fill="#970D0B" points="573.959,298.532 565.479,298.076 576.527,298.076 585.006,298.532 				"/>
			</g>
			<g>
				<polygon fill="#8B0804" points="573.733,338.09 565.254,337.634 565.479,298.076 573.959,298.532 				"/>
			</g>
			<g>
				<polygon fill="#A81313" points="585.866,323.149 584.872,322.044 589.797,322.044 592.682,323.149 				"/>
			</g>
			<g>
				<polygon fill="#8B0704" points="619.518,337.195 618.512,338.09 573.733,338.09 576.629,337.195 				"/>
			</g>
			<g>
				<polygon fill="#900A07" points="576.629,337.195 573.733,338.09 573.959,298.532 576.843,299.637 				"/>
			</g>
			<g>
				<polygon fill="#DC1F21" points="619.735,298.962 619.518,337.195 576.629,337.195 576.843,299.637 586,299.637 585.866,323.149 
					592.682,323.149 592.806,301.337 601.554,301.337 601.43,323.149 609.889,323.149 610.026,298.962 				"/>
			</g>
			<g>
				<polygon fill="#A81313" points="576.843,299.637 573.959,298.532 585.006,298.532 586,299.637 				"/>
			</g>
		</g>
		<g enable-background="new    ">
			<g>
				<polygon fill="#8C0805" points="565.626,272.389 564.624,272.813 588.454,255.744 587.322,256.849 				"/>
			</g>
			<g>
				<polygon fill="#8B0704" points="565.542,287.002 564.549,285.897 564.624,272.813 565.626,272.389 				"/>
			</g>
			<g>
				<polygon fill="#8B0704" points="565.714,256.849 564.721,255.744 564.796,242.535 565.801,241.64 				"/>
			</g>
			<g>
				<polygon fill="#970D0B" points="597.461,272.285 588.981,271.829 610.408,271.829 618.887,272.285 				"/>
			</g>
			<g>
				<polygon fill="#A81313" points="596.335,273.389 597.461,272.285 618.887,272.285 619.881,273.389 				"/>
			</g>
			<g>
				<polygon fill="#8B0804" points="574.022,287.458 565.542,287.002 565.626,272.389 574.105,272.845 				"/>
			</g>
			<g>
				<polygon fill="#940C0A" points="574.105,272.845 565.626,272.389 587.322,256.849 595.801,257.305 				"/>
			</g>
			<g>
				<polygon fill="#8B0804" points="574.194,257.305 565.714,256.849 565.801,241.64 574.28,242.096 				"/>
			</g>
			<g>
				<polygon fill="#970D0B" points="574.28,242.096 565.801,241.64 610.58,241.64 619.06,242.096 				"/>
			</g>
			<g>
				<polygon fill="#8B0704" points="619.806,286.563 618.801,287.458 574.022,287.458 576.918,286.563 				"/>
			</g>
			<g>
				<polygon fill="#A21111" points="576.993,273.479 574.105,272.845 595.801,257.305 600.823,256.409 				"/>
			</g>
			<g>
				<polygon fill="#900A07" points="576.918,286.563 574.022,287.458 574.105,272.845 576.993,273.479 				"/>
			</g>
			<g>
				<polygon fill="#8B0704" points="600.823,256.409 595.801,257.305 574.194,257.305 577.09,256.409 				"/>
			</g>
			<g>
				<polygon fill="#900A07" points="577.09,256.409 574.194,257.305 574.28,242.096 577.165,243.2 				"/>
			</g>
			<g>
				<polygon fill="#DC1F21" points="620.053,243.2 619.978,256.409 596.335,273.389 619.881,273.389 619.806,286.563 
					576.918,286.563 576.993,273.479 600.823,256.409 577.09,256.409 577.165,243.2 				"/>
			</g>
			<g>
				<polygon fill="#A81313" points="577.165,243.2 574.28,242.096 619.06,242.096 620.053,243.2 				"/>
			</g>
		</g>
		<g enable-background="new    ">
			<g>
				<polygon fill="#8B0704" points="565.852,232.761 564.858,231.656 565.101,189.059 566.106,188.163 				"/>
			</g>
			<g>
				<polygon fill="#970D0B" points="586.989,202.908 578.509,202.453 610.804,202.453 619.282,202.908 				"/>
			</g>
			<g>
				<polygon fill="#8B0804" points="574.331,233.217 565.852,232.761 566.106,188.163 574.585,188.619 				"/>
			</g>
			<g>
				<polygon fill="#970D0B" points="574.585,188.619 566.106,188.163 578.591,188.163 587.07,188.619 				"/>
			</g>
			<g>
				<polygon fill="#8B0704" points="620.196,218.032 619.191,218.927 586.897,218.927 587.902,218.032 				"/>
			</g>
			<g>
				<polygon fill="#A81313" points="587.982,204.013 586.989,202.908 619.282,202.908 620.276,204.013 				"/>
			</g>
			<g>
				<polygon fill="#8B0704" points="587.821,232.321 586.816,233.217 574.331,233.217 577.227,232.321 				"/>
			</g>
			<g>
				<polygon fill="#900A07" points="577.227,232.321 574.331,233.217 574.585,188.619 577.47,189.724 				"/>
			</g>
			<g>
				<polygon fill="#A81313" points="577.47,189.724 574.585,188.619 587.07,188.619 588.064,189.724 				"/>
			</g>
			<g>
				<polygon fill="#DC1F21" points="588.064,189.724 587.982,204.013 620.276,204.013 620.196,218.032 587.902,218.032 
					587.821,232.321 577.227,232.321 577.47,189.724 				"/>
			</g>
		</g>
		<g enable-background="new    ">
			<g enable-background="new    ">
				<defs>
					<path id="SVGID_79_" enable-background="new    " d="M595.667,150.858c0.277,0.186,0.555,0.371,0.832,0.556
						c0.101,0.067,0.201,0.134,0.301,0.201c0.045,0.03,0.105,0.07,0.15,0.1c0.075,0.05,0.16,0.085,0.225,0.15
						c0.188,0.125,0.359,0.257,0.516,0.396c1.612,1.448,2.324,3.908,2.411,6.227c-0.107,2.238-0.864,4.686-2.545,6.186l-1.337,0.656
						c1.907-1.7,2.865-4.013,2.882-6.946c0.018-3.005-0.897-5.335-2.743-6.992C596.147,151.204,595.917,151.026,595.667,150.858z"/>
				</defs>
				<clipPath id="SVGID_80_">
					<use xlink:href="#SVGID_79_"  overflow="visible"/>
				</clipPath>
				<g clip-path="url(#SVGID_80_)" enable-background="new    ">
					<path fill="#8F0907" d="M597.557,164.674l-1.337,0.656c1.907-1.7,2.865-4.013,2.882-6.946c0.018-3.005-0.897-5.335-2.743-6.992
						c-0.211-0.188-0.442-0.366-0.691-0.534l1.403,0.938c0.229,0.145,0.436,0.3,0.62,0.465c1.612,1.448,2.324,3.908,2.411,6.227
						C599.994,160.726,599.237,163.174,597.557,164.674"/>
				</g>
			</g>
			<g enable-background="new    ">
				<defs>
					<path id="SVGID_81_" enable-background="new    " d="M596.406,165.464c-0.552,0.294-1.094,0.606-1.654,0.886
						c0.551-0.297,1.041-0.637,1.467-1.02l1.337-0.656C597.229,164.968,596.843,165.231,596.406,165.464z"/>
				</defs>
				<clipPath id="SVGID_82_">
					<use xlink:href="#SVGID_81_"  overflow="visible"/>
				</clipPath>
				<g clip-path="url(#SVGID_82_)" enable-background="new    ">
					<path fill="#8F0907" d="M596.209,165.565l-1.457,0.785c0.551-0.297,1.041-0.637,1.467-1.02l1.337-0.656
						C597.18,165.012,596.728,165.308,596.209,165.565"/>
				</g>
			</g>
			<g enable-background="new    ">
				<defs>
					<path id="SVGID_83_" enable-background="new    " d="M574.918,179.322c-0.528-0.368-1.051-0.745-1.586-1.102
						c-1.053-0.73-2.024-1.568-2.912-2.516c-3.874-4.121-5.798-9.862-5.756-17.223c0.043-7.549,1.999-13.371,5.852-17.447
						c1.272-1.349,2.711-2.475,4.316-3.378l0,0c0.301-0.169,0.602-0.339,0.903-0.509c0.247-0.14,0.487-0.292,0.742-0.419
						c-1.734,0.982-3.282,2.223-4.683,3.708c-4.056,4.292-6.204,10.021-6.13,18.151c-0.161,7.955,1.957,13.596,6.029,17.93
						C572.687,177.577,573.757,178.514,574.918,179.322z"/>
				</defs>
				<clipPath id="SVGID_84_">
					<use xlink:href="#SVGID_83_"  overflow="visible"/>
				</clipPath>
				<g clip-path="url(#SVGID_84_)" enable-background="new    ">
					<path fill="#8F0907" d="M574.918,179.322l-1.38-0.961c-1.133-0.762-2.173-1.647-3.119-2.656
						c-3.874-4.121-5.798-9.862-5.756-17.223c0.043-7.549,1.999-13.371,5.852-17.447c1.331-1.411,2.844-2.579,4.54-3.502
						l1.421-0.805c-1.734,0.982-3.282,2.223-4.683,3.708c-4.056,4.292-6.204,10.021-6.13,18.151
						c-0.161,7.955,1.957,13.596,6.029,17.93C572.687,177.577,573.757,178.514,574.918,179.322"/>
				</g>
			</g>
			<g enable-background="new    ">
				<defs>
					<path id="SVGID_85_" enable-background="new    " d="M589.291,150.064c2.827,0.152,5.653,0.304,8.48,0.456
						c3.927,0.211,6.907,0.861,8.398,2.198c1.612,1.447,2.324,3.908,2.41,6.227c-0.106,2.237-0.863,4.685-2.544,6.185l-8.479-0.456
						c1.681-1.5,2.438-3.948,2.545-6.186c-0.087-2.319-0.799-4.779-2.411-6.227C596.199,150.925,593.219,150.275,589.291,150.064z"
						/>
				</defs>
				<clipPath id="SVGID_86_">
					<use xlink:href="#SVGID_85_"  overflow="visible"/>
				</clipPath>
				<g clip-path="url(#SVGID_86_)" enable-background="new    ">
					<path fill="#920B09" d="M606.036,165.129l-8.479-0.456c0.03-0.028,0.062-0.056,0.092-0.084l8.479,0.456
						C606.097,165.074,606.066,165.102,606.036,165.129"/>
					<path fill="#8F0907" d="M606.127,165.046l-8.479-0.456c1.616-1.506,2.348-3.905,2.453-6.102
						c-0.087-2.319-0.799-4.779-2.411-6.227c-1.491-1.337-4.472-1.986-8.399-2.198l8.479,0.456c3.928,0.211,6.908,0.861,8.399,2.198
						c1.612,1.447,2.324,3.908,2.41,6.227C608.476,161.141,607.744,163.54,606.127,165.046"/>
				</g>
			</g>
			<g enable-background="new    ">
				<defs>
					<path id="SVGID_87_" enable-background="new    " d="M596.666,167.417c-2.827-0.151-5.653-0.303-8.479-0.456
						c0.211,0.011,0.426,0.021,0.642,0.029c3.893-0.148,7.055-0.814,8.728-2.317l8.479,0.456c-1.673,1.503-4.835,2.169-8.728,2.317
						C597.092,167.438,596.878,167.429,596.666,167.417z"/>
				</defs>
				<clipPath id="SVGID_88_">
					<use xlink:href="#SVGID_87_"  overflow="visible"/>
				</clipPath>
				<g clip-path="url(#SVGID_88_)" enable-background="new    ">
					<path fill="#9A0E0D" d="M596.666,167.417l-8.479-0.456c0.191,0.01,0.384,0.019,0.579,0.027l8.479,0.456
						C597.05,167.437,596.856,167.428,596.666,167.417"/>
					<path fill="#960D0B" d="M597.244,167.444l-8.479-0.456c0.021,0.001,0.042,0.001,0.064,0.002
						c2.899-0.11,5.393-0.508,7.168-1.325l8.479,0.456c-1.775,0.817-4.269,1.214-7.168,1.325
						C597.287,167.446,597.266,167.445,597.244,167.444"/>
					<path fill="#920B09" d="M604.477,166.122l-8.479-0.456c0.608-0.28,1.132-0.609,1.56-0.992l8.479,0.456
						C605.608,165.513,605.085,165.842,604.477,166.122"/>
				</g>
			</g>
			<g enable-background="new    ">
				<defs>
					<path id="SVGID_89_" enable-background="new    " d="M594.815,183.415c-2.827-0.152-5.653-0.304-8.479-0.456
						c-6.346-0.341-11.004-2.563-14.644-6.443c-4.072-4.334-6.189-9.975-6.029-17.93c-0.073-8.13,2.075-13.859,6.13-18.151
						c4.055-4.299,9.343-6.546,16.808-6.423c0.9-0.02,1.764-0.006,2.595,0.039c2.826,0.152,5.653,0.304,8.479,0.456
						c-0.831-0.045-1.695-0.058-2.595-0.039c-7.464-0.123-12.753,2.124-16.808,6.423c-4.056,4.292-6.204,10.021-6.13,18.151
						c-0.161,7.955,1.956,13.596,6.029,17.929C583.811,180.853,588.469,183.074,594.815,183.415z"/>
				</defs>
				<clipPath id="SVGID_90_">
					<use xlink:href="#SVGID_89_"  overflow="visible"/>
				</clipPath>
				<g clip-path="url(#SVGID_90_)" enable-background="new    ">
					<path fill="#8F0907" d="M594.815,183.415l-8.479-0.456c-6.346-0.341-11.004-2.563-14.644-6.443
						c-4.072-4.334-6.189-9.975-6.029-17.93c-0.073-8.13,2.075-13.859,6.13-18.151c0.327-0.346,0.661-0.679,1.004-0.999l8.479,0.456
						c-0.343,0.32-0.678,0.653-1.004,0.999c-4.056,4.292-6.204,10.021-6.13,18.151c-0.161,7.955,1.956,13.596,6.029,17.929
						C583.811,180.853,588.469,183.074,594.815,183.415"/>
					<path fill="#920B09" d="M581.277,139.893l-8.479-0.456c1.518-1.414,3.203-2.563,5.096-3.435l8.479,0.456
						C584.479,137.33,582.795,138.479,581.277,139.893"/>
					<path fill="#960D0B" d="M586.373,136.458l-8.479-0.456c2.62-1.206,5.64-1.879,9.174-1.98l8.479,0.456
						C592.013,134.579,588.993,135.252,586.373,136.458"/>
					<path fill="#9A0E0D" d="M595.546,134.477l-8.479-0.456c0.5-0.015,1.012-0.018,1.533-0.009c0.9-0.02,1.764-0.006,2.595,0.039
						l8.479,0.456c-0.831-0.045-1.695-0.058-2.595-0.039C596.559,134.46,596.047,134.463,595.546,134.477"/>
				</g>
			</g>
			<g enable-background="new    ">
				<defs>
					<path id="SVGID_91_" enable-background="new    " d="M590.691,166.622c-0.332-0.223-0.664-0.445-0.996-0.668
						c-0.177-0.119-0.349-0.246-0.532-0.356c1.763,1.179,4.652,1.716,8.146,1.849c3.893-0.148,7.055-0.814,8.728-2.317l2.553,0.866
						c-1.898,1.701-5.018,2.556-9.341,2.556C595.46,168.551,592.608,167.91,590.691,166.622z"/>
				</defs>
				<clipPath id="SVGID_92_">
					<use xlink:href="#SVGID_91_"  overflow="visible"/>
				</clipPath>
				<g clip-path="url(#SVGID_92_)" enable-background="new    ">
					<path fill="#A51212" d="M590.555,166.528l-1.392-0.931c1.763,1.179,4.652,1.716,8.146,1.849
						c1.431-0.055,2.762-0.179,3.958-0.389l2.259,1.147c-1.263,0.23-2.688,0.346-4.277,0.346
						C595.37,168.551,592.472,167.879,590.555,166.528"/>
					<path fill="#A11110" d="M603.525,168.205l-2.259-1.147c1.028-0.181,1.956-0.425,2.759-0.743l2.396,1.041
						C605.578,167.724,604.612,168.007,603.525,168.205"/>
					<path fill="#9E100F" d="M606.422,167.355l-2.396-1.041c0.477-0.188,0.908-0.402,1.291-0.645l2.478,0.941
						C607.38,166.889,606.922,167.137,606.422,167.355"/>
					<path fill="#9A0E0D" d="M607.794,166.611l-2.478-0.941c0.264-0.167,0.504-0.346,0.72-0.54l2.553,0.866
						C608.345,166.214,608.079,166.42,607.794,166.611"/>
				</g>
			</g>
			<g enable-background="new    ">
				<defs>
					<path id="SVGID_93_" enable-background="new    " d="M589.805,151.957c0.248-0.133,0.495-0.266,0.743-0.399
						c0.306-0.165,0.621-0.314,0.917-0.496c1.814-0.985,4.246-1.479,7.304-1.479c4.8,0,8.113,0.828,9.959,2.475
						c1.846,1.656,2.761,3.986,2.743,6.992c-0.017,2.934-0.975,5.246-2.882,6.946l-2.553-0.866c1.681-1.5,2.438-3.948,2.544-6.185
						c-0.086-2.319-0.798-4.779-2.41-6.227c-1.609-1.443-4.954-2.085-9.352-2.24C593.992,150.591,591.53,151.033,589.805,151.957z"
						/>
				</defs>
				<clipPath id="SVGID_94_">
					<use xlink:href="#SVGID_93_"  overflow="visible"/>
				</clipPath>
				<g clip-path="url(#SVGID_94_)" enable-background="new    ">
					<path fill="#9A0E0D" d="M608.589,165.995l-2.553-0.866c0.063-0.057,0.126-0.116,0.188-0.175l2.58,0.844
						C608.733,165.865,608.662,165.931,608.589,165.995"/>
					<path fill="#960D0B" d="M608.804,165.798l-2.58-0.844c0.364-0.355,0.683-0.757,0.956-1.191l2.723,0.755
						C609.585,164.977,609.218,165.403,608.804,165.798"/>
					<path fill="#920B09" d="M609.902,164.519l-2.723-0.755c0.352-0.557,0.631-1.167,0.846-1.803l2.861,0.644
						C610.638,163.293,610.31,163.932,609.902,164.519"/>
					<path fill="#8F0907" d="M610.887,162.604l-2.861-0.644c0.33-0.979,0.508-2.018,0.555-3.016
						c-0.086-2.319-0.798-4.779-2.41-6.227c-1.609-1.443-4.954-2.085-9.352-2.24c-2.827,0.113-5.289,0.555-7.014,1.479l1.439-0.771
						c1.836-1.067,4.341-1.604,7.525-1.604c4.8,0,8.113,0.828,9.959,2.475c1.846,1.656,2.761,3.986,2.743,6.992
						C611.463,160.357,611.269,161.542,610.887,162.604"/>
				</g>
			</g>
			<g enable-background="new    ">
				<defs>
					<path id="SVGID_95_" enable-background="new    " d="M610.479,180.103c-0.306,0.16-0.612,0.32-0.918,0.479
						c-0.025,0.013-0.059,0.031-0.084,0.044c-0.05,0.026-0.117,0.061-0.167,0.087c-0.051,0.026-0.117,0.062-0.168,0.088
						c-0.05,0.026-0.117,0.061-0.167,0.087c-0.057,0.029-0.107,0.068-0.168,0.088c-3.214,1.682-6.962,2.582-11.648,2.479
						c-7.564,0.124-12.914-2.141-16.987-6.484c-4.073-4.333-6.19-9.975-6.029-17.929c-0.074-8.131,2.075-13.859,6.13-18.151
						c4.055-4.299,9.343-6.546,16.808-6.423c5.323-0.114,9.397,0.917,12.754,2.788c0.94,0.493,1.794,1.021,2.573,1.598
						c0.265,0.196,0.529,0.393,0.797,0.584c-0.593-0.43-1.217-0.828-1.87-1.193c-3.198-1.782-7.303-2.672-12.314-2.672
						c-6.902,0-12.283,2.042-16.135,6.127c-3.853,4.077-5.809,9.898-5.852,17.447c-0.042,7.361,1.882,13.102,5.756,17.223
						c3.874,4.131,9.317,6.191,16.32,6.191C603.556,182.562,607.344,181.739,610.479,180.103z"/>
				</defs>
				<clipPath id="SVGID_96_">
					<use xlink:href="#SVGID_95_"  overflow="visible"/>
				</clipPath>
				<g clip-path="url(#SVGID_96_)" enable-background="new    ">
					<path fill="#8F0907" d="M610.479,180.103l-1.518,0.792c-3.249,1.734-7.041,2.665-11.803,2.561
						c-7.564,0.124-12.914-2.141-16.987-6.484c-4.073-4.333-6.19-9.975-6.029-17.929c-0.038-4.177,0.511-7.72,1.603-10.76l2.866,0.6
						c-1.03,2.964-1.557,6.387-1.579,10.265c-0.042,7.361,1.882,13.102,5.756,17.223c3.874,4.131,9.317,6.191,16.32,6.191
						C603.556,182.562,607.344,181.739,610.479,180.103"/>
					<path fill="#920B09" d="M578.611,148.883l-2.866-0.6c0.643-1.789,1.474-3.403,2.484-4.871l2.721,0.715
						C579.997,145.554,579.217,147.139,578.611,148.883"/>
					<path fill="#960D0B" d="M580.95,144.128l-2.721-0.715c0.615-0.893,1.296-1.731,2.043-2.521
						c0.228-0.242,0.459-0.477,0.695-0.705l2.581,0.845c-0.226,0.216-0.448,0.439-0.664,0.669
						C582.175,142.45,581.531,143.26,580.95,144.128"/>
					<path fill="#9A0E0D" d="M583.548,141.031l-2.581-0.845c0.808-0.783,1.663-1.489,2.573-2.117l2.501,0.962
						C585.154,139.623,584.323,140.289,583.548,141.031"/>
					<path fill="#9E100F" d="M586.042,139.032l-2.501-0.962c0.917-0.632,1.889-1.184,2.922-1.653l2.434,1.06
						C587.888,137.918,586.937,138.437,586.042,139.032"/>
					<path fill="#A11110" d="M588.897,137.477l-2.434-1.06c1.597-0.725,3.342-1.253,5.261-1.576l2.26,1.14
						C592.152,136.295,590.456,136.794,588.897,137.477"/>
					<path fill="#A51212" d="M593.984,135.98l-2.26-1.14c1.651-0.278,3.431-0.404,5.356-0.372c5.323-0.114,9.397,0.917,12.754,2.788
						c0.94,0.493,1.794,1.021,2.573,1.598l1.272,0.941c-0.733-0.569-1.516-1.085-2.346-1.549c-3.198-1.782-7.303-2.672-12.314-2.672
						C597.239,135.573,595.562,135.708,593.984,135.98"/>
				</g>
			</g>
			<g>
				<path fill="#DC1F21" d="M618.787,145.983c1.759,3.365,2.629,7.577,2.601,12.606c-0.029,5.111-0.82,9.34-2.379,12.696
					c-1.56,3.348-4.018,6.065-7.365,8.153c-3.347,2.078-7.522,3.123-12.535,3.123c-7.003,0-12.446-2.061-16.32-6.191
					c-3.874-4.121-5.798-9.862-5.756-17.223c0.043-7.549,2-13.371,5.852-17.447c3.853-4.085,9.233-6.127,16.135-6.127
					c5.012,0,9.116,0.891,12.314,2.672C614.54,140.036,617.019,142.609,618.787,145.983z M608.589,165.995
					c1.907-1.7,2.865-4.013,2.882-6.946c0.018-3.006-0.897-5.336-2.743-6.992c-1.846-1.646-5.159-2.475-9.959-2.475
					c-4.042,0-6.991,0.864-8.864,2.583c-1.874,1.728-2.814,4.059-2.831,7.01c-0.016,2.825,0.916,5.093,2.795,6.803
					c1.879,1.719,5.006,2.573,9.38,2.573C603.571,168.551,606.69,167.696,608.589,165.995"/>
			</g>
		</g>
		<g enable-background="new    ">
			<g>
				<polygon fill="#8B0704" points="566.439,129.718 565.447,128.366 565.523,115.048 566.527,114.324 				"/>
			</g>
			<g>
				<polygon fill="#8B0704" points="566.585,104.108 565.59,103.243 565.666,89.988 566.669,89.333 				"/>
			</g>
			<g>
				<polygon fill="#8B0704" points="566.728,79.089 565.733,78.156 565.809,64.92 566.815,63.78 				"/>
			</g>
			<g>
				<polygon fill="#970D0B" points="575.006,114.78 566.527,114.324 587.331,110.182 595.81,110.638 				"/>
			</g>
			<g>
				<polygon fill="#8B0804" points="574.918,130.173 566.439,129.718 566.527,114.324 575.006,114.78 				"/>
			</g>
			<g>
				<polygon fill="#A71313" points="593.884,97.276 595.47,97.169 619.845,104.33 620.84,105.194 				"/>
			</g>
			<g>
				<polygon fill="#8B0704" points="620.931,89.322 619.927,89.977 595.47,97.169 593.884,97.276 				"/>
			</g>
			<g>
				<polygon fill="#8B0704" points="595.81,110.638 587.331,110.182 566.585,104.108 575.064,104.564 				"/>
			</g>
			<g>
				<polygon fill="#970D0B" points="575.149,89.789 566.669,89.333 587.464,83.241 595.944,83.697 				"/>
			</g>
			<g>
				<polygon fill="#8B0804" points="575.064,104.564 566.585,104.108 566.669,89.333 575.149,89.789 				"/>
			</g>
			<g>
				<polygon fill="#8B0704" points="595.944,83.697 587.464,83.241 566.728,79.089 575.207,79.545 				"/>
			</g>
			<g>
				<polygon fill="#8B0804" points="575.207,79.545 566.728,79.089 566.815,63.78 575.294,64.236 				"/>
			</g>
			<g>
				<polygon fill="#8B0704" points="620.762,118.935 619.758,119.632 574.918,130.173 577.816,129.031 				"/>
			</g>
			<g>
				<polygon fill="#900A07" points="577.816,129.031 574.918,130.173 575.006,114.78 577.892,115.713 				"/>
			</g>
			<g>
				<polygon fill="#A81313" points="577.892,115.713 575.006,114.78 595.81,110.638 601.933,110.926 				"/>
			</g>
			<g>
				<polygon fill="#8B0704" points="601.933,110.926 595.81,110.638 575.064,104.564 577.959,103.908 				"/>
			</g>
			<g>
				<polygon fill="#A71313" points="578.035,90.653 575.149,89.789 595.944,83.697 602.055,83.617 				"/>
			</g>
			<g>
				<polygon fill="#900A07" points="577.959,103.908 575.064,104.564 575.149,89.789 578.035,90.653 				"/>
			</g>
			<g>
				<polygon fill="#8B0704" points="602.055,83.617 595.944,83.697 575.207,79.545 578.103,78.821 				"/>
			</g>
			<g>
				<polygon fill="#A71313" points="578.178,65.585 575.294,64.236 620.014,74.673 621.009,75.581 				"/>
			</g>
			<g>
				<polygon fill="#900A07" points="578.103,78.821 575.207,79.545 575.294,64.236 578.178,65.585 				"/>
			</g>
			<g>
				<polygon fill="#DC1F21" points="578.178,65.585 621.009,75.581 620.931,89.322 593.884,97.276 620.84,105.194 620.762,118.935 
					577.816,129.031 577.892,115.713 601.933,110.926 577.959,103.908 578.035,90.653 602.055,83.617 578.103,78.821 				"/>
			</g>
		</g>
		<g enable-background="new    ">
			<g>
				<polygon fill="#8B0704" points="600.126,40.674 599.121,41.569 599.259,17.382 600.264,16.487 				"/>
			</g>
			<g>
				<polygon fill="#8B0704" points="582.919,40.674 581.914,41.569 582.039,19.767 583.043,18.872 				"/>
			</g>
			<g>
				<polygon fill="#8B0704" points="566.855,56.72 565.862,55.615 566.076,18.066 567.081,17.171 				"/>
			</g>
			<g>
				<polygon fill="#8B0804" points="608.605,41.13 600.126,40.674 600.264,16.487 608.743,16.942 				"/>
			</g>
			<g>
				<polygon fill="#970D0B" points="608.743,16.942 600.264,16.487 611.863,16.487 620.343,16.942 				"/>
			</g>
			<g>
				<polygon fill="#970D0B" points="602.037,41.13 593.558,40.674 600.126,40.674 608.605,41.13 				"/>
			</g>
			<g>
				<polygon fill="#A81313" points="611.628,18.047 608.743,16.942 620.343,16.942 621.337,18.047 				"/>
			</g>
			<g>
				<polygon fill="#900A07" points="611.49,42.234 608.605,41.13 608.743,16.942 611.628,18.047 				"/>
			</g>
			<g>
				<polygon fill="#8B0804" points="591.398,41.13 582.919,40.674 583.043,18.872 591.523,19.327 				"/>
			</g>
			<g>
				<polygon fill="#970D0B" points="591.523,19.327 583.043,18.872 593.682,18.872 602.162,19.327 				"/>
			</g>
			<g>
				<polygon fill="#970D0B" points="586.474,41.13 577.994,40.674 582.919,40.674 591.398,41.13 				"/>
			</g>
			<g>
				<polygon fill="#A81313" points="603.031,42.234 602.037,41.13 608.605,41.13 611.49,42.234 				"/>
			</g>
			<g>
				<polygon fill="#A81313" points="594.408,20.432 591.523,19.327 602.162,19.327 603.155,20.432 				"/>
			</g>
			<g>
				<polygon fill="#900A07" points="594.283,42.234 591.398,41.13 591.523,19.327 594.408,20.432 				"/>
			</g>
			<g>
				<polygon fill="#970D0B" points="575.56,17.626 567.081,17.171 578.128,17.171 586.607,17.626 				"/>
			</g>
			<g>
				<polygon fill="#8B0804" points="575.335,57.176 566.855,56.72 567.081,17.171 575.56,17.626 				"/>
			</g>
			<g>
				<polygon fill="#A81313" points="587.467,42.234 586.474,41.13 591.398,41.13 594.283,42.234 				"/>
			</g>
			<g>
				<polygon fill="#8B0704" points="621.118,56.28 620.113,57.176 575.335,57.176 578.231,56.28 				"/>
			</g>
			<g>
				<polygon fill="#900A07" points="578.231,56.28 575.335,57.176 575.56,17.626 578.445,18.731 				"/>
			</g>
			<g>
				<polygon fill="#DC1F21" points="621.337,18.047 621.118,56.28 578.231,56.28 578.445,18.731 587.601,18.731 587.467,42.234 
					594.283,42.234 594.408,20.432 603.155,20.432 603.031,42.234 611.49,42.234 611.628,18.047 				"/>
			</g>
			<g>
				<polygon fill="#A81313" points="578.445,18.731 575.56,17.626 586.607,17.626 587.601,18.731 				"/>
			</g>
		</g>
	</g>
</g>
</svg>
